<mxfile host="Electron" modified="2024-04-18T02:42:54.916Z" agent="Mozilla/5.0 (Windows NT 10.0; Win64; x64) AppleWebKit/537.36 (KHTML, like Gecko) draw.io/24.2.5 Chrome/120.0.6099.109 Electron/28.1.0 Safari/537.36" etag="Cxqj0mXbkyNTnSY_gwSO" version="24.2.5" type="device">
  <diagram name="第 1 页" id="hS9jkSUcPzyeysNK6ZN5">
    <mxGraphModel dx="2142" dy="1460" grid="1" gridSize="10" guides="1" tooltips="1" connect="1" arrows="1" fold="1" page="1" pageScale="1" pageWidth="827" pageHeight="1169" math="0" shadow="0">
      <root>
        <mxCell id="0" />
        <mxCell id="1" parent="0" />
        <mxCell id="4QOtOBBewpYF80F3E4aM-1" value="" style="shape=image;verticalLabelPosition=bottom;labelBackgroundColor=default;verticalAlign=top;aspect=fixed;imageAspect=0;image=data:image/png,iVBORw0KGgoAAAANSUhEUgAABdAAAAMpCAYAAAAEhhF6AAAAAXNSR0IArs4c6QAAAARnQU1BAACxjwv8YQUAAAAJcEhZcwAAFxEAABcRAcom8z8AAP+lSURBVHhe7N17sHR3Xef7+WP+oOYf/Sd7BygkWmqlsndImBxAZMxEEg6ZEWvvDUjlAA5RigKxuIXDCGfgkDNyK1EQSgQ1CCNKKBmJgoiXwoiEidzvBMIlXH1ACCFcTDJc9lmfftZ3Pb/nt75rrd9a3eva71fVp5Jnd+/ub/futXr3p9f+9b8BAAAAAAAAAAAAAAAAAAAAAAAAAAAAAAAAAAAAAAAAAAAAAAAAAAAAAAAAAAAAAAAAAAAAAAAAAAAAAAAAAAAAAAAAAAAAAAAAAAAAAAAAAAAAAAAAAAAAAAAAAAAAAAAAAAAAAAAAAAAAAEzav83y707+b+E/ZLkjy5Wrf52k8/34yf9N9sAsr83yi6t/+X40y4ksr8wSzwEAAAAAAAAAQMmds/ynLA/IouK6bc7Oou/fy1JFpfhvZVFZfm99IWeldvi1X85ynKVN0a0i/ttZzlj9y6fr+nqWy1b/akcz/VoWincAAAAAAAAA2CIqn1VYr5vwKHKPSvTnZVGJbkeKxwW6ldxNlxVLKdDvlOXGLGFZn8JmskLfexOhLgAAAAAAAACABdPR4+/N0vYIbB3dHhfKj8tymP///bOoQNe/dST757KoqI6/x7teHRX+D1kelMUr0G0pGIsuXwW6Xbel7japdNdM16z+dapM995AqEqXI94BAAAAAAAAADPRtUDX93mlcttYgR1SgW4zeQW6LQXTlKqj3VXAvzFLyu2Oj6QHAAAAAAAAAGyJdQr0tsuxxKouQ19/UxYdRa4PEVWBfl7+b2/ONku43C3LtVmslNf3/k6WqnXeKdABAAAAAAAAYEttqkD3lnTxclYWo8uIj0C3pVW8I8oV74j11AJdZbyWaflQFjuiXUeza+12Lf/ioUAHAAAAAAAAgIXTmuTekdZdCnQtgfLSLFrTXGxJFK/wjmPXpe/RmulPzRKKC2tvCZe4lK9aA91idJ3PzGKXZeue1x1JT4EOAAAAAAAAAAsXrisesgLdlkixqJR+QJaUYt0K9KYlXapmCMWFflygW+ntlfNedHS5V37bzE3zUKADAAAAAAAAwMKpiK4q0L3iWYmP/K5iZfRzsoQlfJwnZKkrrG35lnCZFu8I9Dpa4zyl+LelW+JiPC7wrUCPj25vunwAAAAAAAAAwEzUFehNR2E3sQLdK+HjtL0uK9DvkkVLvjwoS52qYjyk82iWqgI9LPCrjnj31mIHAAAAAAAAAMxQnwW6x4pnWye9K82tovs9+X8vy6LCPjwaPMwvZtHtsSVpwtul79NR8CrAX5vFW5rFK9BZwgUAAAAAAAAAFqyvAv3OWeISW7EP9lSh7Z1+VpYmuoxrs6jwVhFvM2rm8GjwulgZrvLcvk9rtVcV4xToAAAAAAAAALBl+irQ25TZYaquU0X3/bNYca4jz9usgV51O0WXrfXRhQIdAAAAAAAAALDSZ4HurQduHwiqJVdiWoO86jpVWGvplw9l0TIsmjsu0FWEa811nScu1usK9BAFOgAAAAAAAABgZS4FumiJFzvNK9DFivb4cijQAQAAAAAAAACtzKlAD1UV6GIlevhBpRToAAAAAAAAAIBWplSgPy/LJgp0uTBLeDkU6AAAAAAAAACAWiqWtRSK5YFZVCxrXfHw61agx1+PYx++GUst0G3dcvsQ0edkSdFUoMdSj24Pi3HNZrfTbo/9Wx9oqvMdBl+znJUFAAAAANC33f2jY0JIf8k3NQDYFnFZvYlUldIq6r1y3TsCXWX0Q7O0KZ6bCnTdVh3R/tosf52lbtZQWKCrdI9vb0raFPsAAAAAgK68wo8QsrnkmxoAYDgqqLU+ubeESxspR6DrPNrX35Dlj7LsZWmi77kjC0uzAAAAAMDUWcl3yRXXEUI2GAp0AAAAAAAAYOYo0AnpJxToAAAAAAAAwMxRoBPSTyjQAQAAAAAAgJmjQCekn1CgAwAAAAAAADNHgU5IP6FABwAAAAAAAGaOAp2QfkKBDgAAAAAAAMwcBToh/YQCHQAAAAAAAJg5CnRC+gkFOgAAAAAAADBzFOiE9BMKdAAAAAAAAGDmKNAJ6ScU6AAAAAAAAMDMUaAT0k8o0AGsy/YjYyUfw+Wdf8jkY7i88w+ZfAyXd/4hk4/h8s4/ZPIxAAAAAGBa7EWLVwASQrqHQgDAumw/MlbyMVze+YdMPobLO/+QycdweecfMvkYLu/8QyYfAwAAAACmxV60eAUgIaR7KAQArGus5+iU/RezlcNs3ZIyGwAAAACMZqwXS4QsPRQCANY11nN0yv6L2cphtm5JmQ0AAAAARjPWiyVClh4KAQDrGus5OmX/xWzlMFu3pMwGAAAAAKMZ68USIUsPhQCAdY31HJ2y/2K2cpitW1JmAwAAAIDRjPViiZClh0IAwLrGeo5O2X8xWznM1i0pswEAAADAaMZ6sUTI0kMhAGBdYz1Hp+y/mK0cZuuWlNkAAAAAYDRjvVgiZOmhEACwrrGeo1P2X8xWDrN1S8psAAAAADCasV4sEbL0UAgAWNdYz9Ep+y9mK4fZuiVlNgAAAAAYzVgvlghZeigEAKxrrOfolP0Xs5XDbN2SMhsAAAAAjGasF0uELD0UAgDWNdZzdMr+i9nKYbZuSZkNAAAAAEYz1oslQpYeCgEA6xrrOTpl/8Vs5TBbt6TMBgAAkMp+tyCEkE1ltBdLhCw9xUYGAB2N9Rydsv9itnKYrVtSZgMAAEhlv1sQQsimMtqLJUKWnmIjA4COxnqOTtl/MVs5zNYtKbMBAACkGut3GkLI8lK8VmHHQkg/KTYyAOhorOfolP0Xs5XDbN2SMhsAAECqsX6nIYQsL8VrFXYshPSTYiMDgI7Geo5O2X8xWznM1i0pswEAAKQa63caQsjyUrxWYcdCSD8pNjIA6Gis5+iU/RezlcNs3ZIyGwAAQKqxfqchhCwvxWsVdiyE9JNiIwOAjsZ6jk7ZfzFbOczWLSmzAQAApBrrdxpCyPJSvFZhx0JIPyk2MgDoaKzn6JT9F7OVw2zdkjIbAABAqrF+pyGELC/FaxV2LP3mz972peOr3/qF46v+8rPHv/SC97rn2VT+83/9X+7Xp5LD//ZP7tdT8tjfer/79Smn2MgAoKOxnqNT9l/MVg6zdUvKbAAAAKnG+p1myXnqyz58/IjnvNs9baioU3ruaz6+mqXvfm3J0f2neKeRcorXKuxY1svv/vlnaovrD3zqG8fmGb//0dLpD3v2u47fdcPXj5/9hzeUTmsTFcw3f/MO9zri/MbVN66uTxtM29L9ju9+f3WbNHObQlzX861//e7x37zrK53KcH2vrvvv3/fV2ZTpxUYGAB2N9Rydsv9itnKYrVtSZgMAAEg11u80S436H1EX5J0+VFTgm+s+/DX3PIrK9U0dYKouSrdb15fSgalr+6O/+fzqv/EbDrqcj332m6v/rvMGgL7f5upShIee8JIPuuchp1K8VmHH0j0qg0UP2qoNyc6jjaTudPnUF7+9KtS98zVFM4hK5qYN4E3vOJF83jhfvvn21feqyPZOr8pv/89Prb5P2l6vdixGO4mx3/VMTbGRAUBHYz1Hp+y/mK0cZuuWlNkAAABSjfU7zRyjDsoOdqzqaVQGmz77GPVqmqOqX1MpbqoOHtX3qrdap18LYx2YejTv9DhahULUe8UHf27qjQjr/3QQbUqpH8fovvZOJ6eneK0ytR2LHuB6MAwdHZXtzVMXlcLaKKRq47SC3HtgamMyqUePV0Ubzee/8q+ry9LOr+4obb0bJrrd8Wl690rLzei/3o7Rdh667fFpddH9I5qtbWkflu/6cx3vPFNMsZEBQEdjPUen7L+YrRxm65aU2QAAAFKN9TvNHKNVFYx6m6ojt9VZifok7/RNRAeeiuaoKoZN1ZHX6rmMZl63RLcuK7UzrOvbrB9UyR6f1iY6Gl66FuD2s2zb621ritcqU9uxhH+SMaSuOwFttCqFReVy/GcYtoFoHfTw64pt2Cq+u7xrFEf3nRXc2iCq3hm0Ddrb2JrKarv8NmW/CnPTpQC3+0k7Lu/0qabYyACgo7Geo1P2X8xWDrN1S8psAAAAqcb6nWaOsQMx60prRQdaijoh7/RNRCW1qZrHeEugqHcz6pG6LG8Sx/qo1A6srm+zfnDdNyHWvRzr9TZx/2xDitcqU9uxaAPRg6BL7J0h/dc7vS7rPHB0tLeV6PG7TFUPbP1b9H2b/BMYXZa9m6SNwnu3za7b26BVcEvVTrHLhmY7nLo1qqqix4Md5T+3d8eKjQwAOhrrOTpl/8Vs5TBbt6TMBgAAkGqs32nmFvU6pulz+dQtWTfTZ/EaluBa8iQ+It7EPZr1XNJ2yeG6WJ8V3+aq1TOsM1MvF58WdnXxaZaUz/yjQB82xWuVJe1Y7EHkFcN9R0dZ6527uLD2HtjhTmqdZVuqosu3HZs2wPj0ugLdZtNtiU9T2m5oVshrnqo/ndGfr2jHqLniaMdntCP1zmPReTe5o1w3xUaGJGecc3D+7t7BRbvnHly+u3d05e7+g1+8s390rWL3JZlg9g6vX/2M9o5erp/bzt7Bk1c/xyz5jxZrsPvZ28f0GbvefAwXs5XDbN2SMhsAAECqsX6nmVusb0n9a3/7PD2df1Mf0ukl7IHijseEBbqtOy5e6b5O1KlJ3IHp+vuQ0rVRoA+b4rXKknYsfRboKpTr3iWqivcOkx2trv+G542j79XG783TFK1jpev0/qxFG5nUFei6/vg0pc2Gpp2W3X7NE54W7ux0XZui+cLrGTPFRoZKZ5xzdKmK1539o5vs/iILyt7RLTv7h1dn/73s7nd/1J3yHztasPvS28f0GbvefAwXs5XDbN2SMhsAAECqsX6nmVN0pHPbI8p1UKR1PF3L25SoS7L10CXsk4x1StYDyqbLc8X6qvg+stUztFKCTrPYPPq+8OuK5hOdJz5NB5/q8uIj673YdVCgD5PitcqSdiz2INJ/vdPXySZL3jbWuS1V61cNVaDbu4Dxu5naoelrug7tgLXOlWZStNOwHUj4YRbxTimMjuK374+L+jFTbGQoqERVmbqzf/Qqlat2Hyl3u9flxz924ROPz7n0yuN7HLzw+PyHvOT4vpdfvcrFT3qbex+T8WM/o3s+7GWrn9v+zz9/9XM8676PLX62RfaOrtnZP3zcGef8wpn5QwIN7L7z7vs+Y9ebj+FitnKYrVtSZgMAAEg11u80c4p1XG2X2rV1ylW+ewdsbirqs9Q/6aj3sBQ3KprVJ1nR3kd5rtj9pO7JOz2OLUHjdWrrfvinxbpPdWDe6ZpV9DPSHHHsjRPr5apOT73NS0/xWmVJOxZ7EK37YPRil536ybvrRhuCrPvpvF7ssr37yTY0bTTxaUpqgR6+mxmv4RQW4zoKv2qNp6oCfi4pNjKsqDjd3T88YfeL8iP3efSqcL3fY97g3odk3rnw8W9evRGiQj38uWePhdt2946u/KHzDn44f3iggt1n3v3bZ+x68zFczFYOs3VLymwAAACpxvqdZi6xpXYlZc3tOOqLROW1d/qm4h0UauxIbZXmOuBy3fLcjihXwgM71UeJeqzw4M2q+00ftqr7x1te2A4ebVpvvimpBfq6mnq/bUnxWmVJO5YlFuh6t807fZ3YZfdVoGvHYzuZ+A0A7dTsT35Unuv+9HZ0+poV8FM6qrxNio1sy+VHnBdLtKg0V6mqctW738gy87NPfOvxBZe94vjHL3pKsW3orxC0ZjrLu1Sz+8q7T/uMXW8+hovZymG2bkmZDQAAINVYv9PMIWEno6OlvfM0RUeeW1/TpbOy3qlpWWMvRuW9d3pVrMuqKp1VyLcRdoO6zHXStmdsKtDVyek+VvR5jfHpdb1eeD+kLCezDSleqyxpx9JngW5/ahGXuXrXSQ9avRNlD9A2sXew4nevmm6LHsj6Pu8y9Y6Xt5FY9H1Vl63vF+1g4tOUpgJdO1I7j8Qf/Gn3o1RdhmJHqWunvO47iWOl2Mi21M7+wWF2+99v94OWaLnXw69y7yuyXdGSL+FR6as3WM49uDx/6CBg95F3P/YZu958DBezlcNs3ZIyGwAAQKqxfqeZQ+wDOvU5f+t0LeHKAm07OOudxqBeyptJy8GoB1Nn5fVXuo3qt6yQV5dn3xt2YF3UffahynW9SWEzKXbAquYIv6751Ad6lxOGAr1ditcqc9ixWEmtP6Oo+wE2lc7rRA9M0Rzh1/Vg3oT4HSfbUKs2pKYdju4r7/sU3Qbpo0DXTidFfD/GqTqCfU4pNrIttLt39HK7/Xe94BGrI869+4hsd+79yFev/iLBHitaI51lXU5X3DcjJR/D5Z1/yORjuLzzD5l8DJd3/iGTj+Hyzj9k8jEAAADWYr9beK9Btjm2PrfUHXSZGhW7pk0Pp15PHZh6paZoeRYdqR4Ll1lJjZZO0X+9mbxYxyh132f9lc6vris11jPW3Xc6XxspPwcK9HYpXqvMYccSltRx0RzGHtwpD5i20bt0enDH7+boASfaoOONISW2I4gfuHrTQF+rWldJX9c8SvgOWdXlhdH5xLuf7PZ0LdAVlf42m67DZrNPHNbOJXynU5cV/ulO+GnLOq++ZjskvUsaXteUU2xkW0Tl587+0bW63Wfe46GrD5XkA0BJU7S0y13Ov2y1vezsHd6we97BWflDauvZfmSs5GO4vPMPmXwMl3f+IZOP4fLOP2TyMVze+YdMPgYAAMBa7HcL77XHtsZ6INH/e+fpEut5ZNNdnApv67j0X+urRKsV6Po28UZAVWypG6lbt1ydldT1ZF7sZ1K3lI46UI5AHzfFa5U57FjCjcQ73aKNRza90dbFZtMD0Du9KfbArSrK2yal4NaGJd79ZLdHG2J8mpJy+V50+0Q7ufi2hj/fJlVzTTHFRrYl7rz/4LNX5Wd2m1WGapkO734hxMvPPPaNp45G3zv8xu7ewUX5QwsAAAAAktlrce91xzYmPChVB4eqdFYP431IZ2r0/Yr6HR3oaHRA5LqltubSagRGl6nVDnSaR9e/iQ8SDRP3VCrwq3q7dQt0/dc7vSrWfbb9PgsFervY/mRWBbre/fFOt9iDSO/G6IHUFB257V1Om9hs6xbom3pgTrFA107M3iHTdcen2wccaGeknaJ9GEX4Dp/N7H2S8VRTbGRbQGXnqvTMbq9KUD4glHSJPmg0/JBRfcBo/hADAAAAgCT2esJ7zbFNURdjPZmo59HXrNfZBHU16rOs8zE6GrpLoa2lWcIjv+PLMeqQdGS29UeiklvF+yb6tbDAN7qucO1zixXoXXk9WV0o0IeN7U9mVaDrh+ydbgl3DKm8y2mT1NmqYg9cffimd3rb1G0IFlv3aqgC3cpvvWvonR7GdlLa+YZft8vwZp5qio1s4c445+hSu60qP1WCevcHIanZ+7nnFNvP7v7h0/OHGgAAAAA0stcS3muNbYmOAg+PDFfHYkecW68j+rr6n7AAV3ejr9XF6MhvXaYuO1zORXT9qUejqzgPL7fqe40dDa7r1bIlYekuOmC2TW8VRoW9LR1j7L70SvRw7i6GLtDttnn3DwV6ObY/WWSBrg0n3LDr4l1Om9hsegDqwds2dQ/cLkkpuOs2Nrs9VfdN2wJdOzXtYHQ7mza+8Ojz+ENQNatQoE+Llm2xI8/PfuCz3PuBkC7Ruui2De3sHxzmDzkAAAAAqGWvI7zXGdsQ9Skh9TtWnldFKwAYWy6lLiZeGzz8YFEV6lWXpa+riNb547K67uh143VSWqomPhJe/65bv9zL7/75Z1bfq27RPqNPs9r/q7cKP59R96+07fWs5/K6ubqsW6Abr6OjQC/H9ieLLNCHLFnjHVNXcWHcNVMq0LXDs51Xyu2zHa12UvHOkgJ9evIPDL1Jt1FHnnv3waZy6dPecfwrL/pA6ev6yw39IqDTm34hULzL+Lv3fOX4lW8uf9DGH/7VZ49f8cabKi/3f/z1545vOvGd44f/uv+k8syrPnb8/k9+o3JbedDTrz/+2q13rK4/ZXZFt/MjN31zta3UzfW97//g+Jmv/Jh7uhfdL7otKdv1kDnv6EWrbWhn//C2M845OD9/6AEAAABAJXst7r3G2IaoT7GVB7QMblUZHcZKY5XD3ulxjPcaUpdlR6Z70dHhHs1aV9qqdDd1HZOOSI9L+bp54ljvpdsRluOazY501/1kbw5MqUDXqg6apy7G+0sDe5NAwtNTPpx0qbH9CQX6mtG7UNrI9cD1ogeaNjC98+adruj7vXWUumRKBbotxxL/PLTTsR2RvWsXvhGh8+vyw9jMuh/j0yy6D3W54XWNmWIjW6C73/1Rd9rZP7pWt09rnve9bItKYY8VxdqGUpy4+bZS8fybr/vk6rRX/MXpjx1d5lve+eXi3899zSeOX/i6G4vv10wf/sytxelx9P26Pj02vdP1LnjbolsF+g2f+1Zp1jC6XO92VsUuU9+jXwD0/6nC+6ev/MT9n7bajvRmzRnn/MKZ+UMQAAAAAFz2Wtx7fbFNabNUsPU3WqrEOz2MCnnT5QNDwyJa9Nq56gM6w+j1qhW6TR2azmtFvQ7sTHkTQVHRLnZgp65L7HW9/qtyPrx+K52rXvtXRZ2c6AA57/Sq1HV6Nu+mxb3eNsX2JxToPcc2CGnzjlfXpBTctkGFf3Jisfta54lPU1ILdL07Jdr5aqet69JOwdaNMvbuYng/raPpMTJkio1sgXb3jl6u23aX8y8b5QNDrfStKnBVbusd4aqjw+PYUdthMR0X6Pp3WJjXFeg6ovs7t32vthyPL68uL/iTG4+f/nsf6aVAT7mvdJ42l7nJXPyktx2fdd/Hntye9g6v15s3+cMQAAAAAErstbj3+oL4sbJZBy16p4dRj2Os02kbFdAq7dt8v3ojRX1UaiGu60l9I0GluxX7Vk7HBbqdz/5fsZ6sK9334eU1pa5AV/emr+sgVc0cR6cZWye+LrocfU/bZXCWFNufUKD3HD14RRuhd/qmk1Jw27tj3p+82H29ToFu71zW0eWEPyftgFTi6XpVLGoDDWM7Lb1zGJ+mP03S6fa94SxjptjIFkbrUet2nXmPhx7f9/Kr3dveV5700pPvbjcVunH5nRItpfLuj99S/Du+jPjfdQV6fF4rvlPEZbZ9r65L20lcoGuOJlVz6ntTjoIfs0BX9CbNXS94xGp72tk7en7+UAQAAACAEnst7r22IH6sJ1Kf450eZhMFepcYHQEel9ibiC0r3HZ5Fp1fdMCodVMpsX5N/+9dblXqCvSm2G0UO8reOx85FdufUKB3iObRA1XluP6/LrbulIpf7/QwOkLdLte73pRUFdzhRmFrQXnvwun7pGoDTinQbe2skG6/dsQq7bvs6HS/yJTeHGlKsZEtTHab3q/bpfWpvdvdV3RU9+13fP/4Q5++1T2629ZDt7XFw9NVQrctf7sW6HpnNizBrZgPrz8+T13Co843dQS6LkfvNofl+RXZNl31PWMX6Mq9H/nq1fZ0cj10lnIBAAAA4LPX4t7rCuLHjrxOWRZXr73NUK8Rw9K+j9UdwmWFw/W+1Y1JXQdWFc2pLkxdwiaP4F6nQLdOz2zzkeWpsf0JBXqH2JpIfdHG5V1vSryCW+W5/RmO1pUSlXd2ephNFOi6Pu18dTv0ZsAmdqgU6NOwe+7B5bpNOhpYS2t4t7vPWInulbl6vNVJXS7FEhfm8b+9Al3l/Te+9b+LgtvmDb9PiS+rLnYZHu9+aCrQVZ6//tovnlae29xV3zeFAl2x9dB39x/84vwhuXi2Hxkr+Rgu7/xDJh/D5Z1/yORjuLzzD5l8DJd3/iGTjwEAALAW+93Ce01ByrEeSFLWIg/P751eF12++iZFPU9qwpUOdBS1d56UqFOKPxBT67jbUeTxUdnrFOi6PtFlb/JI/aoCXV2A5q26rvCND3WE9l/vvORUitcqc9ix2MY5lQLd3pnSkdzhhujF1pHS7N7pYfTOlLT9AIEwXsFt94u+ZkvK6LrC77PYfb1Ogb5ubGcYlnX6t4Q/W90WzTPknwy1SbGRLYTWnt7dPzyh23T+Q17i3uYh0qWUjk+zI7lD8VHdXQp0nScWn0fzN62PHiYsxL0j0ONSu6lA99JUkE+lQL/fY96w2qZ0FPqd9x98dv7QXDTbj4yVfAyXd/4hk4/h8s4/ZPIxXN75h0w+hss7/5DJxwAAAFiL/W7hvaYg5VhvpWVcvNPjWG8k3ul1Cb93LHFnqE7J7oP4CHyvQNf59e+m2GWmrEhhSem3rONTT6ZSXP8NP2+walkWWy1CP2dbRlm81SnIqRSvVeawY9GDSKZSoKfOo1hhXVVIhwk3Au/0lMQFt12/qFiz9Y6qSnq7bWMV6OG8ui5b7iUu0LWB28aeupMfOsVGthA7ewdP1u3RBzp6t7fP2NrnlnAHr1JZpXRYcD/zqo8dv/OGrxcldVx+h/FKaaVLga65bFZtb3qM2jItXrkuVXMpNptdTzyrHTmeKr6Nir0hEZ6m6wnPM5UCXfnJS55xctvaO7omf2gumu1HvPuiz9j15mO4mK0cZuuWlNkAAABSjfU7zRyjzsWoj/HOE0cfzCldPutPBbH6nbaxLkr9j/2/Xm9r2WTv/HXRa3VvNh0dH5fPXoGuy+iLLju8fi9WzFsnFtKBvt736LW8LdNjP2c7ql/3aVXpToLXKnPYsaQW1hTopxfc2qnZBmWXaUe5V60ZZbdtiAJd84X/1o7b1mfX9YQlqe2gwp9tuNb6OvdZXyk2sgVYHX2+d/Rl3R6tRe3d3r5St4SJUcEcFtxeeT1EgW6Jl3Kp+nrdXIpu+6e/9O3i/FWzdo3NE8+gucLCXLc1NlahftGv/u3qA2z1WDzjnIPz84foYtl+xLsv+oxdbz6Gi9nKYbZuSZkNAAAg1Vi/08wxVqKqi0ktUa3nSunENhFbilj0Wj9cckVlsvc9m0pdga5CWqd7CY8IN+rjvPMq1rXF3ZZ+JrpufV3n80pzfa8Oko07tjDWN+r77eccHoU+xU5tKileq8xhx2KlbtPGSYF+quBWuWxltMownRauf15VfNltq5rXLj/cebSJ3m3UO4Ta0cRHjtsaTJo7/rMV20HFP9twJ6CdaHja2Ck2sgWwtc/HOPo8jp4wrbzV/9ta3mEZPXaBXnV9+nr4PXVzebFZX/nmz67WMa/7XivHq2a0y5L4cuLbNqUj0JW9n3vOatva2T96Vf4QXSzbj3j3Q5+x683HcDFbOczWLSmzAQAApBrrd5q5Rb2LHZWsIt07jxf7XMCUnmsT0fWISmn7WvjZhH12gHbdbTsw67dUmqv7krZz6qDSKrov1JOFB55Wxf5iQOK/Mgjvx6l1alNJ8VplDjsWCvT0WMFtdL327pL9mUfdO3QqHqXqtnUp0HX9WjfediAmnCPcaDVD+P1KVYGuy7Z39jSb3dYppNjIFmBn//Bq3ZZ7Puxl7m0dMlag691SFcBW/oZl9JgFuq77phPfWZXNejJ73Vu/cHzN2/856Uh6CeeOE5be/3LL7bXboQr0r916h7vW+mNe+L7VjLofr//ozaX7ZuoF+s889o359nV4In+ILpbtR7z7oc/Y9eZjuJitHGbrlpTZAAAAUo31O82cotd21qV4BzHWxY5a12tk7/RNJuyK4vXJrUMTHYHdRx/UpUC3Xk30/+ER9HVHiXuxVSREnZfu+5TS3BK+SVLVlVpXqMvXrN55tjnFa5U57Fgo0NOiHaDKN6P5rPCK/+Ql/l5L05/i6OvStPPQ9ao01w7VjoQ3uozwnTLb+UrVba8q0JXwtvX9s2+TYiObOS3fog9t1G3R8hnebR0yevxamatC2R7jYcGt86xToNvX2hbov/m6T+aPxFP0S8lvv95fMqlurji6bNv+4rlS2Ky6bXqCVAGv+8ebYeoFunK3e12+2r52zj36qfyhuki2H/Hugz5j15uP4WK2cpitW1JmAwAASDXW7zRziV7XhcVsm3JYsVJZqwt4p28qYVekAzLjglz/th5N9Np70wVw2wJd57MOLOwB7baozG4zo7oN3fa2PyMlnEVdQtUbDDo40Up2nb9tyb/0FK9V5rBj0Q9dqkpdi204fZeoqfMoqQW6Hsj2Zx1dC/Rwx6EHffiulL2jpI2i7l05zatZtYF6p1uBV7fxeoWe5tE7guGfhGgOm0vqfm51BboS7ljr3iAYMsVGNnM7+weHuh0/er/Hu7dz6IQFevj1sAiOC9+6ojou0J/7mk8c/1///d2lNczjy/AKdB1lfuMXvnX8p9d+cfX/4WmWF/zJjcX2Y5epGf7+ff/iFtQqznXkupaq+at/+vLqyPH4aHl9f/y9dUegh/HumzkU6LaMy+7e0ZX5Q3WRbD/i3Qd9xq43H8PFbOUwW7ekzAYAAJBqrN9p5hD1MOHqAPFR3U0JD2Dsq2jV604rrsUrz8Nc9Zefzc958i+69e9NvXZtU6DbgXyiNyjCGcL7Xefpu6S2Dk3U4zX9hYF+rla2i4789863jSleq0xlx2LFrRd7Z0wPMu90i71jov96p6dEG5o3XxgrxTWPd3qYqgJdG4/mVGmu00I6cjs8b2rCjTUskW0GabtzjGMFet3Grus22kHo+uOdXbzTbnrTo6lAt/tTNGN8fWOk2MhmTutM63acd/Qi93YOnZQCXf8fFsBeSWwJC3SV3t+57XvHf5DtB/TfsHyOL8Mr0Jtiy7iEc+r/qz7MU9FpKtf1hB2X/Yp9LV7SZekF+n0vv3q1fe3sHd6QP1QXyfYj3n3QZ+x68zFczFYOs3VLymwAAACpxvqdZupRN2Odjui1oHc+RUclq4fRa0xFXZIOXLSStengzC7RAZfqfKzXkqby3KIeLfw+/b8ua911va2vqyvQVT6HB4fG5blFXwuP/Nd8bZbOSYlub9i16fr0s/TOGycu0XXb6273tqR4rTKVHUv47siYmopcJVyDyTs9jJXXetDGp3m3WRvdOjshlYs60tv+raLbdiLeDG1jO1vdLu90RfNrhqYdgc6n+yCctyr60yDRDts7XdFt1xsSm94BdU2xkc3c7t7RLbodWnfau51DxyvQrUSuKqP/7j1fOX73x28p/h3GvldHd6vc1gd0etfRtkDXX4DoenWZKrzteqqKfV2nxEeXh/EK9PDr2tZt2ZqlF+gXP+ltx3c5/7KT29l5B2flD9fFsf2Idx/0GbvefAwXs5XDbN2SMhsAAECqsX6nmWri4lz0OrCpe4q/J9T1wM8wun4r5209dqOCvq538qIuKCyyjS5bX1f/pI6sTWdkBXp8ezW7XsOrQwzp33Wvm3VaeBCtXsOrE1unqNZlqqeM70NdT9vX8CrR7eBUs+1FevFaZSo7Fv0w9GAeO9oAvPnChLN6p4exAl07nvg0vQukB6I2Fl1Wmw8CSIke+OE7cPq3d742sQ0p5Uj9rtEGrp253cfh8ix9Xu+mU2xkM6b1pXUbfuQ+j3Zv4xjxyu0weuzocf+o5713VSq//5P1TxpWPouKZPt3XCrHRbNXoGsb1oeG2i8aOir8d97w6eIDT1NK+bAEj1NVoNtpb/vg14ontqUX6MpPXvKMk9vZuQeX5w/ZxbH9iHf7+4xdbz6Gi9nKYbZuSZkNAAAg1Vi/00wx6lRCOsI4tZhWsR3T0c3rLD+i69ZlVJXzmk8zN5X7ddFr4vBI75Beb7fp3mzO8D5Thxd2baK527ypEP9cRH1b2zcm4qPGRbOt052pvwiPYpdtXtKleK3CjqXf2EahB7R3et/RjkEzbOrDHVT4K23fCWybeGMV7UxS//RkCik2som5+Cn/eOl//L+vPTP/Zy1b/1xFpXcbx0hVgf6YF75vtT641gq30lilst5pDr8Wx5ZVscJYl++d/w//6rOrMtz+7RXo9r062t3WQLfS25s5Lq+9o+fD1BXocbahQNeyQqvtbEbroF/81Ldf9MAnXZ98xLztR7zb32fsevMxXMxWDrN1S8psAABgez3gSdedr+T/bDTW7zRTjR0lrb/Yb9Op2KoBep27qSOQtcRIXD6Ljp7WdW2y89Hcuu1hwdy2y7KDSMPlkHW5xgr/Lq+VdV/YZyGK/r/LGwf62dhtVF+3qYNzVcLr9m/qZz/XFK9V2LH0Gz3QtDEp3unEj951E+1AVKbr3a6plXdNKTayibnkKe941SVPue62i6+47sVNRfrO3sGTdRv0gY3ebRwy+nDPF//pp46v/+jNRZmrQvkP3nTTqjiXeB1wiwpgqSqmdRk66tsK7LgY9+IV6CnRk5lux0v/7NPF8i7x6eG/wzQV6DpdR6G/M9tm3vOJW2rfOLBYgW5vJLSRcvl95oLLXrHaxrROf/6QnbyLn/L2K1fzZ9thSpFu+5H4tvcdu958DBezlcNs3ZIyGwAA2F4PuOK6y1e/NzzlumtSivSxfqeZcjax5MqmYqsM6ChxFdObKnzrotK7Sy9XdRCp9Xyb6Kk0m7qvde4Hfe+UfsZLSvFahR0LIf2k2MgmZlWg25wNRfrO3tHzdRum8AGiVoJ/6au3Hf/260/9+ZCebPRudXh0uJfffN0nj695+z+7p1l0lLkuq2oJlTCap2pd9bpYSW9Hqrd5wrUCveqNAMXup5tvvaPx9ioq0Lu8ETCF2AeJ7u4fviV/yE5eUaBbGop024+c9j0DxK43H8PFbOUwW7ekzAYAALZXUaBbGor0sX6nIWnRUdZT+ew6QppSvFZhx0JIPyk2sok5rUC3VBTpO/uHV+s23OvhV51+fkImEH2wrR6fO3uHN+QP2ckrFeiWiiLd9iPu9/QYu958DBezlcNs3ZIyGwAA2F6lAt1SUaSP9TsNIWR5KV6rsGMhpJ8UG9nEuAW6JSrSd/aPrtVt0JG+7vkJGTE/+8S3ntzO9o5uWT24Z6CyQLdERbrtR9zz9hi73nwMF7OVw2zdkjIbAADYXpUFuiUq0sf6nYYQsrwUr1XYsRDST4qNbGJqC3RLXqTf9YJHfl634cLHv9k/HyEj58zzHrrazn7ovIMfzh/ik9ZYoFvyIt32I+55eoxdbz62i9nKYbZuSZkNAABsr8YC3ZIX6WP9TkMIWV6K1yrsWAjpJ9quzj34Dfe0ueTiJ/3DD8659EoKdDLZ3PWCR8x+O6vLWM/Rdr35axYXs5XDbN2i61zydkwIIYSQYXPPh71sdaCNdxohhLRJ8TpqrBdLhCw9xUY2MUlHoGe5+Iq3v/8nH/D/fEK34acf/Xr3PISMHT0+d/YPb8sf3pOXfAT6FdfdpCNtbD/inN5r7HrzsV3MVg6zdUvKbAAAYHu1OAL9xCVPefuT7a9U3fMQQkiLFK9V7H+8MxFCuqfYyCamqUBXcX7/K/7xUOfd3Tu6Rrfh3o98tXveJeRXXvSB4+/c9r3jt7zzy+7pVTn8b//kfp0MF/1lhB6fO/tHN60e3DOQUKCvivP87JStTpitW+Y+GwAA2F4Ja6CvivP/+Oxr76Tzj/U7DSFkeSleq7BjIaSfFBvZxFQV6GFxbnb3H/xi3Qb9CZz3PUvIg55+/fHXbr3j+Jmv/FjxtUuf9o7jGz73reM6bQt3svnow231+NSH3eYP2cmrKdBPK86N7Uec8/cau958DBezlcNs3ZIyGwAA2F6VBXpUnJuxfqchhCwvxWsVdiyE9JNiI5uYuED3inOzu3/4dN2Gexy88LTbtqTUFeiv+IvPnHZey9+/76ulAl1Hst9+x/fzer1e1eXWRdfpsct69h/ekH/ldB/+zK2ly1pK7vXwq1bb2M7+4dX5Q3bynALdLc6N7Uei7+k9dr35GC5mK4fZuiVlNgAAsL1KBXpFcW7G+p2GELK8FK9V2LFsd/7zf/1fq+LNO42sl2Ijmxgr0OuKc7N77sFqDeazH/gs9zYuIZsq0C3e94ZfqyrC5cTNt1UuDRNfZ3w92o7j7/8ff/25RRfo5z/kJattbGfv6Pn5Q3byggK9tjg3th8Jb/cQsevNx3AxWznM1i0pswEAgO1VFOgNxbkZ63ca0n8e+1vvP37Ys9/lnlaXX3rBe49/+39+qtP3ku1O8VqFHcsyo7LtTe84sdpJeKdbrn7rF1bF3btu+HrjeUm7FBvZxOgXjqbi3OzuHVyk2/BjFz7RvY1LyKaXcGkq0PVvr4BvKrsp0MvZ//nnr7axnb2DJ+cP2cnTL/8pxbmx/Yh3+/uMXW8+hovZymG2bkmZDQAAbK+Ln/KPl6YU52as32mWkj9725eOP/Cpb6wypQMudQDop7747dXr8b9511dadVjXffhrq+8T9WDeeYbII57zbkr8maV4rcKOZXlRgXbHd08tJfEbV9/onk8brZ3vW//63ePnvubj7vlItxQb2Yz90HkHP7yzf3j7mfd46PHPPvGt7u2cY6qWOxGV1F4JHsYrwC1dC/S6y1Qo0Mv5kfs8+uR2tndwUf6QXZyxnqNT9l/MVg6zdUvKbAAAAKnG+p1mKfmjv/n86rWx+qIplb2/++efWc0lN3/zjuOnvuzD7vni6DYYFfBVf/W9iTRdtt23ojcBvPOQaaV4rcKOJS16l0jsXbghoh3CVX/5WXeeuqgwNyrdvPMoeldRdD26fd55SPcUG9nM6QMadTsuuOwV7u2ce/pawsVjlxcX203Xp+g6PWGB7llqgf4zj33jyW1s7+iW/KG6SLYf8e6DPmPXm4/hYrZymK1bUmYDAABINdbvNEuJlbwf++w33dMVldeKjgr3Tq+LjhxvuwKCSnB1V6ISvE2xb91X328IPOP3P9rY44V9ne5n7zxkWileq7BjSUv4jtWQqo4er4uWYxFtuFU7h7Bs0/m8Aj+MyrsuO8ZtTrGRzdzO/uHjdDt+8pJnuLdz7hljCZf4aHFvhtTosr73/R8U36tt9V9uuT353fi55ryjF622r539o1flD9VFsv2Idx/0GbvefAwXs5XDbN2SMhsAAECqsX6nWUqsQNeyJ97pyrraHn0dluB15bteY4en699WvKccoGpvDHQp2tWdSd2MYYH+hJd80D0PmVaK1yrsWNJjmo7W1oa2bnn15ZtvX12XyjHv9Kpo52DLslSt66QPXbDzpFp6GddHio1s5nbPOzhLt+PM8x56fPGT3ube1jlnnfLaS0qB/isv+sDxrd/+7vHDf/3kviQu1Nsk/l5d19+95yudL28u0br8q21s7+iy/KG6SLYf8e6DPmPXm4/hYrZymK1bUmYDAABINdbvNEuJFeh1Jbd8/iv/Wjr4silWZrcp0NVhtWGXrYNAdZ1ddDmYVV2glkeWqqP3wwK9S0mfEl2uPjBVt93WjNf/62A7HSXvfQ+pTvFahR1LekxTgW4fTrDOuuJWoLctrm1NqKo/TdHsdtn6kNH4dItKOcOflXRLsZEtwO7e4fW6Lff5L3/s3tY5xwr0P/jLzx7f+IVvFaV216QU6LrOb3zrfxf/rlsSpmrpljbCI9SXEK3Hr8fjzv7hbVqnP3+YLpLtR7z7oc/Y9eZjuJitHGbrlpTZAAAAUo31O81SklKgDxWV59ZhpbK51XkZFdoqkcPLUrmsr4UxXQp0JezS1M/Fp4cFenzaJqKC3Er8KrqdfZX3S0zxWoUdS3pMXYGuB6vRUipdlz3pUqDruuzdPO9PbbTjsdM1W3y6JfwTF+1kWLqlW4qNbAF2946u1G05+4HPcm/rnKOjwVVmq2S+5u3/vPr37Xek/4VGXHxbWe4JS3UV41qffJ0j4LWWupZreemfffr4phPfWf3/03/vI+55lxStx39y+zp8S/4QXSzbj3j3Q5+x683HcDFbOczWLSmzAQAApBrrd5qlZCoFujosK4P1X3Vx6qesL6tbYib8wNGw/wqPEleRHH7PpmIH1XoHtvZZoId9pO4jrUqhr+l+08G9ekPBVqPQXw/Q9aWleK3CjiU9pqpA14PP/jxCG6QeqCrAq6KdUtW7Wl0K9HAHoR1NeJo2FttQmkpxe5fOdlDeeUhzio1sAe68/+CzdVvOvMdDj+/3mDe4t3duecwL31c8sTUdod2m5E45Al3RO9O6Xs3QdrmVK7L9ggrzd3/8ltO+7wV/cuPq67rcv/qnLy+yTNcyQne71+WrbUvr8+cP0cWy/Yh3X/QZu958DBezlcNs3ZIyGwAAQKqxfqdZSqZQoKtPsw5L/w27Ma0dbqdVLV2s86ifU69VV2L3seJCuORMXPJbb6fOL/z6ugnfGNBlV/ULYcmudeW985DTU7xWYceSHlNVKocFdgpt8HHRbWlboKsQD48at6/rgwusJDTaSLST8KKdj9G7cd55lDbF/ram2MgWYnfv6OW6PT9x/6e5t3dOsSVUVDT/8d9+vlSO6/S3ffBrqyPS7d+bLtDDI9XDr4fReV78p59aRUeZa6Z33vD14z+99ou1hbveHPiL6/65OJJet1PvMC9huz3/IS+xbev9+UNz0Ww/4t0XfcauNx/DxWzlMFu3pMwGAACQaqzfaZYSdT4yVoGugtsKcvGWRrYZJTxd36s+zQ5WrfowTx2Vbvp4naweTq/B4w8Ktc6tao30rrEPWVUv2HQgrNZHF93HLOXSnOK1CjuW9BjvwagNzt7t0YYSls1hwjWV6tZHb1ug67KN/RlKWIZvmq4vnoGcnmIjW4gzzvmFM7XmtG7TEo5CV8msEtorx61gt2J7UwX6+z/5jdU663Y5tr55XYFuJXsV+96qtdK1rIuKd32waHz5c4vWPr/rv3/ED/QY3Nk/OMwfmotm+5Gxko/h8s4/ZPIxXN75h0w+hss7/5DJx3B55x8y+RgAAABrsd8tvNcU5FRUkKtwVYcUxvqo+DTrvPo+MEt/rW2rO9R1T5pJ7PP9wvXHRZdRdeBZeMR2H28U6PK9lR90XaLX7/Fp68Ruy1V/+Vn39Dgq94VurznFaxV2LOkxcYFetbZSHB1tbu+iNf2pRJsCXecJaSeir9ufvCj2DpNUHYFuG5Bug3e6YnPp8uI5yOkpNrIF2d1/8It1m37swie6t3mOqSrQw69ZoR6qWvbFSm89ib/urV84/vSXTj7xi77n+o/cvHoS1/rl+vd7PnFL5WVZ6kr5sECP12PXdWid9fBrc87ezz1ntU3t7B9dmz8kF8/2I2MlH8PlnX/I5GO4vPMPmXwMl3f+IZOP4fLOP2TyMQAAANZiv1t4rynIqViZ21bfBbql6XrUzdl5wiVfJOVIbB3Umlo4e6k6ur0uduS7dYLqBnQbqqK+UV1cXQcXLhnTdJstukzZ9JHwS0zxWoUdS3qMPSD1blJ41Kfe3dLXdOS33vkKv1ffY0uspLy7lVqga2Oz8xor0BV9v23Udr6qDSrl3UR7h69q7XZyKsVGtiA6Cn137+jLul33fuSr3ds9t3gFur1zbeV0yhHo+vDRL331ttX3Gb0ppSL9mVd97LSyO7587UfqSnQK9OuOL/rVv12twa/H3hnnHJyfPyQBAAAA4DT2Wtx7XUFORV2RFbXhUh7WHYXdlZYisfNWHdU9VsIlX9S7WU+njqvP7mpIdQfrdllXXT9HM7Wf59Ri+xN2LC1irIC2D9sUPVD1oLMF+bXx2jtZejeoTXmu2A5LD2rvdIutb67rszWPwgI9TF2BbhuPdjDxaWEo0NNTbGQLs7N38GTdLn2Qo0pN77bPKV45rifcD3361uPv3Pa91TroKQW6Cu2P3PTN1TIt8Yd3hmX3b77uk6ttKCy7dbo9yWuplfgJbNsLdH1wqP7qYbVN7R1dkz8UAQAAAKDEXot7ry1IfcKjmb3+St2RClv9d93oCHBdVnwdqVHpH65lrqOp7Y0AXbYdJKrzhG8QbCrr0Kzq15pi6laxsL8kUCfgne5FnYPRz8I7DzkZ25+wY2kRExbQKsnjPw0J1x7XUen2Tlhqea40Feg60j38cFDNoVJbtJF531NXoNufb+gy49PC2AZMgd6cYiNbmLvf/VF32t07vF63TaWmyk3v9s8lcTmuo8O1zT7819+9Wif9phPfWT3mdYS43jSzD/W0NH2gp2Jltx2h/u6P3+KeT+W5aN3ycNvf9gLdlm7Z3T88ob+CyB+KAAAAAFBir8W91xakPtYNiXfUc3j6Jqiniq8jJeqkrCAXr2BW96WiWuyg000W6bovFB1Iq9fv8QeGxtF5pOnA1TCm7o0Gu43qIr3Tq2L3H0s018f2J+xYWsR4BXSc+MMLtFNo82cRdQW6Lid8l80K86YC3TYO7TRsQ7fY9el749PC2PnYwJpTbGQLtFrKZf/whG7fOZde6d7+qUfl+CveeNPqTSNbPkVHh99+x/dPK6rtvPogzniJFkkpqMOy+7+/+vTlneI89zWfKG339v2esED3zL1Av+fDXrbajvQBtjvnHv1U/hAEAAAAAJe9FvdeX5D62GfjGXVEYZel3kmvob2+yGIfANrUL+kAtbZHTevgUeulRPOqwPbOb1H5HJbtOrg1pdfbdGwVi9SDazWjqbuNXXs6Pkg0LbY/YcfSIqZpQ1N5Hm7Qps07Xvb9XoGuP0Wxo9p19LtdXlOBvklsYM0pNrKFUpm5s394u27j+Q95iXsfTDk68lwfDHrzrXeslmlRSa0P/dT/e+dfJ3ZdcTGfmqoj0LVkTFige0egVx3tPof89KNfr3XPf6DHWPZYe1z+0AMAAACASvZa3HuNQaoTLt8SUu+k07zv8WJLimyiN9LqCyqPdZnWg4n+X2W6Tve+L47Kd80TFuk6clvlepcPA+0SW9o5dUWH1A8Htf4w9XIt6g6Ffq8+tj9hx9IipuqBqz/XsAegaMPUxqhC3d6BM03veNUV6IquS+cJT28q0LVRKCrg9X2K7dhEs9rXvWinpfPoMvRv7zrIqRQb2YLt7h1dZrfzPv/lj937gZAuufDxbz6+6wWPOLkd7R29PH/IAQAAAEAte43qvc4g1dEBn2JFtbol66bUbzUd6W1Zp0BXT6bOSrPY0iQxzaLyPO6sUqLeLCzijW6n5tbM6vB03tRyPiW6PJO6OkXq95iuBbput3c6ORnbn7BjaRETFt86+lsP0nBJFfE+pMAr0vUOlI4c1Z9ahO/oNRXoXpoK9Di2c5SUDU23qcsOcFtTbGQLt7v/4BfrdupI4Qsue4V7XxDSJjry/FR5fni91t3PH24AAAAAUMtei3uvNYgf9VdWLNvn7dmBn9Zj6XT1Wt73h1mnQFdRbH1YSN2ZSnPNGR642pX6MPVwcUcXalrTvE1s+ZbUvk6xjk+80y2GAr2f2P6EHUuLGBXd2tC8jVYbuu1QdLS2d5S5To/XlTK2ZlGfBbp2AuE7ebqupnfAbAcolOhpKTayLaAjhO326gMfvfuDkJToTRhbtkXl+Q+dd/DD+cMMAAAAABrZa1Pv9Qbxo/5K1Cep8xErVsNSWyV6an/UtTtSZ2Vlvg7k1BHp4ekqvzWnzZoazWXfF5bNWsJFp4c9na4jvM51Y8u36E0A73Qv9jPRfe+dbjFtC3S7vRTo9bH9CTuWFjEqxcNCWbQBhu/E6U9bjM7rFekqx8MP/tM7UnZaHwW6dkL2TqJoA7b1n3R93ppW+pOVcEadXzuS+Oh6Uk6xkW2Jnb2DJ9tt/rELn3j8s098q3u/EFIVvflijyG9KcOR5wAAAADastcU3msOUo56Hyt41WupTJawWFXJrD4oLGnVC6ljipd2sb5MlxOft6l8t6gL83q0vqPrVHG9yeVbdJ+K3hTQ/aDrUP/XdB32c9BR8t7pFusP2xbo9n3hz4mUY/sTdiwtYmwj1k5BOwDvzzq0UahotnfNROf1Smpdnh6w4caziQJdOybtyHTZ4Ttp2jHaDkE7QaOdYfjhCZor/FMdHR2/yZ3I0lNsZFtkd+/got29o1t0u3/kPo8+vt9j3uDeN4SEuehX/3b1poseN/pgWj4w9BTbj4yVfAyXd/4hk4/h8s4/ZPIxXN75h0w+hss7/5DJxwAAAFiL/W7hvfYg5ai7EnVF6nysuA0LdCX+sM2r3/qF1flE3ZGV416Bbh1X1QGfm4p6sbqjvHX6kAeF6v60267rVc9m/1ZH6H2Pxe7HpvvMLq/N0e2KoUCvT/FahR1LeowV6CnRRqkHox3pLdpImoroTRTomjO83rA41+nauVlBbudT0a7T9Q6ZfU3f5xX/pD7FRrZl7rz/4LN39g5vsNt/9gOftSpIvfuIbHf0Vwr3OHihlmzJt5fDEzvnHv1U/lBCxrajsZKP4fLOP2TyMVze+YdMPobLO/+QycdweecfMvkYAAAAa7HfLbzXIOT0qDeyAz/VF+lrVQV6GPVGdtS6/huW616BbkdhyzqFrXosFfdep2YrQdiR3vHpStiBDVEc231pM2nu8DMU6+5jdYdN51FsiWYV9N7pXjSHaXvk+raleK3CjiU9pk2BbtGGYh8a0PQuk7KJAl3R0fG6rPhPUDSP7Tg0j3ZCdp32X6Mdi7dzIvUpNrItpHWrd/aPXmX3gQrS/Z9/Psu6kCLnP+Qlpz4oVNk7uuaMc37hzPwhhJzdP9592GfsevMxXMxWDrN1S8psAAAAqcb6nWaOUX8kdvS5vpZSoKtjMuFyxopXoCvhEevx96REvZWV9ros7zzWZ9mbAWHCEl/6LtD1pkL85oSi+9n6OKm6LfazaSrG7f7W8sve6V7C1Si8VTXIqRSvVdixpMfUFegqprVBV/1JiI7kjv/sxcumCnQvelfOdjrhhmgFv6g01+XZRs07Uu1TbGRbTEejqxi1++Iu51+2Kk45In07c/GT3nZ8r4dftVrexx4T+qBQLf2TP2QQsfvJuz/7jF1vPoaL2cphtm5JmQ0AACDVWL/TzC3qg0xY8KYU6NYp6Wjq+LSqAl2xUlidU5eDU23mqqPMtYyJqFOLT7N+S9/bpcBvGzvSPHxzwqI3A8KllrVkcni6Yr1g09Isdpt1n3qne9H1Gc3inYecTPFahR1LekzdRh6+oybacaQU5nH6KNC1cwl3NuEGajtIYztPe4dOfxJi5yVpKTYy/Bsty7Gzf3St3SfKWfd97PF5Ry86/pnHvtG9/8gycuHj33x8z4e97Pgn7v+04mevZI+Hm3b2Dw7zhwgq2P3l3bd9xq43H8PFbOUwW7ekzAYAAJBqrN9p5hQd3GmFclzwNhXo1j2Jt9xvXYEern7QdPCnF/VadlS3d8S1TjdhSa45Tdu1wrvkua/5eH5t/tHwirpCld7ilex2WtMBreFt834eXqzc7/Iz2LYUr1XYsaTHNL1Lpg0lXNNItExKmzJ8kwW65tWOyzY+XXZ4ubZz1Om2A7Uj07UB2zuLHIXeLsVGhoIKUx2RvrN/eJvdP8rd7nX58TmXXrk6Ov2+l1+9io5W9u5XMt3Yz+6Cy16xWrJHb5KEP+dV9g6v50NC09n95t3ffcauNx/DxWzlMFu3pMwGAACQaqzfaeYYFc5x71RXoGu5Dyuwq5YnrivQFVurXNSfeeepi80nXmFsa4eH129fG+LgUN2+pvvIopJfHV3cM6qLM7q88DQv1iGGq0xURZdt8w3xZsLcU7xWYceSHpP6ZyY6n45ItwJaVFCn7CA2UaDre60QF20g2oHYu1r6r+3YdD6bV8KN3C5XBXvqbScUAnXufvdH3Skv01+uD460+8rLaetkk8nltOVYnOjNkixX7557cDlrnLdn96O3j+kzdr35GC5mK4fZuiVlNgAAgFRj/U6zlFQV6Crbrd9Sv1TVDzUV6IoV2t6R103R+W0OrxBXyR+uBGErK2jmLitEtElYnqtnS7lt3nl035qUo8p1lLuk9HbW+2lO/Uy985BTKV6rsGNJj2lbImtj0IM5LNJVkNdtuJso0HW9+n/RzimcWzsUW29Jf/ZiG6ytg6TT7LyKHVGvnRPrI6Wl2MjQ6IxzDs7f3Tu6cpX9w7douZedvcMb7D4kc8jhidXPbfWzO3q+fpYs0bI+u3+9fUyfsevNx3AxWznM1i0pswEAAKQa63eapcQr0NUZqQ8ydUcupxTo4bIjKUdNx1HHFh8k6iX84NG+j7YOy3NdZ9vuMIw6O5NScus+CFedqOrtrDeUqg8vJaeneK3CjiU9putGoAewNm5bKqVuI99Ega7oOsM/99Ds4YeFxjs0nVe00Ydf1wZrG6PK9XV2BNuSYiMDgI7Geo5O2X8xWznM1i0pswEAAKQa63eapcQr0K0Ul6ZlUFIKdMU+oy/1SO0wOn9KL2X9V99Lt4Tluf6rAtw7X2qsmxPvdC/qD416O71hoDnUC+oofN3fNmO89DOpTvFahR1Lesy65bHK6KY/G9lUgW7R5ehIc6N3w8IPVLBoA5O4QFe04dnGpjJd7/i13cltU4qNDAA6Gus5OmX/xWzlMFu3pMwGAACQaqzfaZaSuEBX76PVCrQygTqhpiVFUgt0dWPqqaqOll43dhS3Zu5r6RbNbm8EGK9raxv7GejNBe/0qui67eDXKn3e50tM8VqFHUt6xtC1QNcOTmW4/t9Kb9H/a0Os2lhsHSoV+N7p4btgovOlfsrvtqXYyACgo7Geo1P2X8xWDrN1S8psAAAAqcb6nWYpiQv0tkkt0Jui0ludWNeEyxZ7p3tpc8CsOrhwqWb1bfqad942UV9ns3f5Geg2aHkW9YFGRbwuK1yhgqSleK3CjiU9Rg88PRD7jJXebT6R2Ap0W7/c/m200wjXTorXUdLOyTb+uk8K1rt4doQ8ayZVp9jIAKCjsZ6jU/ZfzFYOs3VLymwAAACpxvqdZimxAr2uF7Ko7I27JXVmolULwq+3jRXxQ0op/XUQabgevOio77bLtuh+023UdYax8lw2UciT9VK8VmHHkh6jd6W80zcZK9DbbCxWmIdHj2vj04btbch2NLl2bvHG3/SulHaSbcr9bUyxkQFAR2M9R6fsv5itHGbrlpTZAAAAUo31O81Soh5JdHCnd3oYrX5gB1jG1l2tQOWyLjs+4LSv6Lp0271ZLOrC4iVS1Kl1XerZ3mzwpLyBQfpP8VqFHUtatDGYvotjbZCmaeMNYzs58U6Pox1dvOGruF/3XUJyMsVGBgAdjfUcnbL/YrZymK1bUmYDAABINdbvNEuJHfmd+sGb9ll6oSWvVqA3BqxLU8m9zmcDhj2eUS+nddXXuVyyuRSvVdixpEV/WmHvSk11zSAdgW4zeqd70bIuesdLG70+FCL+0xvSPcVGBgAdjfUcnbL/YrZymK1bUmYDAABINdbvNEuJfZ6e+iLv9DhaDlhFsKIVG/r6wM4pRSV6mwNeq2KXo6iTa7sMDOk/xWsVdiyE9JNiIwOAjsZ6jk7ZfzFbOczWLSmzAQAApBrrdxpCyPJSvFZhx0JIPyk2MgDoaKzn6JT9F7OVw2zdkjIbAABAqrF+pyGELC/FaxV2LIT0k2IjA4COxnqOTtl/MVs5zNYtKbMBAACkGut3GkLI8lK8VmHHQkg/KTYyAOhorOfolP0Xs5XDbN2SMhsAAECqsX6nIYQsL8VrFXYshPSTYiMDgI7Geo5O2X8xWznM1i0pswEAAKQa63caQsjyUrxWYcdCSD8pNjIA6Gis5+iU/RezlcNs3ZIyGwAAQCr73YIQQjaV0V4sEbL0FBsZAHQ01nN0yv6L2cphtm5JmQ0AACCV/W5BCCGbymgvlghZeoqNDAA6Gus5OmX/xWzlMFu3pMwGAAAAAKMZ68USIUsPhQCAdY31HJ2y/2K2cpitW1JmAwAAAIDRjPViiZClh0IAwLrGeo5O2X8xWznM1i0pswEAAADAaMZ6sUTI0kMhAGBdYz1Hp+y/mK0cZuuWlNkAAAAAYDRjvVgiZOmhEACwrrGeo1P2X8xWDrN1S8psAAAAADCasV4sEbL0UAgAWNdYz9Ep+y9mK4fZuiVlNgAAAAAYzVgvlghZeigEAKxrrOfolP0Xs5XDbN2SMhsAAAAAjGasF0uELD0UAgDWNdZzdMr+i9nKYbZuSZkNAAAAAEYz1oslQpYeCgEA6xrrOTpl/8Vs5TBbt6TMBgAAAACjGevFEiFLD4UAgHWN9Rydsv9itnKYrVtSZgMAAACA0Yz1YomQpYdCAMC6bD8yVvIxXN75h0w+hss7/5DJx3B55x8y+Rgu7/xDJh8DAAAAAKbFXrR4BSAhpHsoBACsy/YjYyUfw+Wdf8jkY7i88w+ZfAyXd/4hk4/h8s4/ZPIxAAAAAGBa7EWLVwASQrqHQgAAAAAAAACYOQp0QvoJBToAAAAAAAAwcxTohPQTCnQAAAAAAABg5ijQCeknFOgAAAAAAADAzFGgE9JPKNABAAAAAACAmaNAJ6SfUKADAAAAAAAAM0eBTkg/oUAHAAAAAAAAZo4CnZB+QoEOAAAAAAAAzBwFOiH9hAIdAAAAAAAAmDkKdEL6CQU6AAAAAAAAMHNW8hFC+km+qQEAAAAAAACYG6/wI4RsLvmmBgAAAAAAAAAAAAAAAAAAAAAAAAAAAAAAAAAAAAAAAAAAAAAAAAAAAAAAAAAAAAAAAAAAAAAAAAAAAAAAAAAAAAAAAAAAAAAAAAAAAAAAAAAAAAAAAAAAAAAAAAAAAAAAAAAAAAAAAAAAAAAAAAAAAAAAAAAAAAAAAAAAAAAAAAAAAAAAAAAAAAAAAAAAAAAAAAAAAAAAAAAAAAAAAAAAAAAAAAAAAAAAAAAAAAAAAAAAAAAAAAAAAAAAAAAAAAAAAAAAAAAAAAAAAAAAAAAAAAAAAAAAAAAAAAAAAAAAAAAAAAAAAAAAAAAAAAAAAAAAAAAAAAAAAAAAAAAAAAAAAAAAAAAAAAAAAAAAAAAAAAAAAAAAAAAAAAAAAAAAAAAAAAAAAAAAAAAAAAAAAAAAAAAAAAAAAAAAAAAAAAAAAAAAAAAAAAAAAAAAAAAAAAAAAAAAAAAAAAAAAAAAAAAAAAAAAAAAAAAAAAAAAAAAAAAAAAAAAAAAAAAAAAAAAAAAAAAAAAAAAAAAAAAAAAAAAAAAAAAAAAAAgEX5t1n+3cn/LfyHLHdkuXL1r5N0vh8/+b/JHpjltVl+cfUv349mOZHllVniOQAAAAAAAAAAKLlzlv+U5QFZVFy3zdlZ9P17WaqoFP+tLCrL760v5KzUDr/2y1mOs7QpulXEfzvLGat/+XRdX89y2epf7WimX8tC8Q4AAAAAAAAAW0TlswrrdRMeRe5Rif68LCrR7UjxuEC3krvpsmIpBfqdstyYJSzrU9hMVuh7byLUBQAAAAAAAACwYDp6/L1Z2h6BraPb40L5cVkO8/+/fxYV6Pq3jmT/XBYV1fH3eNero8L/IcuDsngFui0FY9Hlq0C367bU3SaV7prpmtW/TpXp3hsIVelyxDsAAAAAAAAAYCa6Fuj6Pq9UbhsrsEMq0G0mr0C3pWCaUnW0uwr4N2ZJud3xkfQAAAAAAAAAgC2xToHedjmWWNVl6OtvyqKjyPUhoirQz8v/7c3ZZgmXu2W5NouV8vre38lStc47BToAAAAAAAAAbKlNFejeki5ezspidBnxEei2tIp3RLniHbGeWqCrjNcyLR/KYke062h2rd2u5V88FOgAAAAAAAAAsHBak9w70rpLga4lUF6aRWuaiy2J4hXecey69D1aM/2pWUJxYe0t4RKX8lVroFuMrvOZWeyybN3zuiPpKdABAAAAAAAAYOHCdcVDVqDbEikWldIPyJJSrFuB3rSkS9UMobjQjwt0K729ct6Lji73ym+buWkeCnQAAAAAAAAAWDgV0VUFulc8K/GR31WsjH5OlrCEj/OELHWFtS3fEi7T4h2BXkdrnKcU/7Z0S1yMxwW+Fejx0e1Nlw8AAAAAAAAAmIm6Ar3pKOwmVqB7JXycttdlBfpdsmjJlwdlqVNVjId0Hs1SVaCHBX7VEe/eWuwAAAAAAAAAgBnqs0D3WPFs66R3pblVdL8n/+9lWVTYh0eDh/nFLLo9tiRNeLv0fToKXgX4a7N4S7N4BTpLuAAAAAAAAADAgvVVoN85S1xiK/bBniq0vdPPytJEl3FtFhXeKuJtRs0cHg1eFyvDVZ7b92mt9qpinAIdAAAAAAAAALZMXwV6mzI7TNV1qui+fxYrznXkeZs10Ktup+iytT66UKADAAAAAAAAAFb6LNC99cDtA0G15EpMa5BXXacKay398qEsWoZFc8cFuopwrbmu88TFel2BHqJABwAAAAAAAACszKVAFy3xYqd5BbpY0R5fDgU6AAAAAAAAAKCVORXooaoCXaxEDz+olAIdAAAAAAAAANDKlAr052XZRIEuF2YJL4cCHQAAAAAAAABQS8WylkKxPDCLimWtKx5+3Qr0+Otx7MM3Y6kFuq1bbh8i+pwsKZoK9Fjq0e1hMa7Z7Hba7bF/6wNNdb7D4GuWs7IAAAAAAPq2u390TAjpL/mmBgDbIi6rN5GqUlpFvVeue0egq4x+aJY2xXNTga7bqiPaX5vlr7PUzRoKC3SV7vHtTUmbYh8AAAAA0JVX+BFCNpd8UwMADEcFtdYn95ZwaSPlCHSdR/v6G7L8UZa9LE30PXdkYWkWAAAAAJg6K/kuueI6QsgGQ4EOAAAAAAAAzBwFOiH9hAIdAAAAAAAAmDkKdEL6CQU6AAAAAAAAMHMU6IT0Ewp0AAAAAAAAYOYo0AnpJxToAAAAAAAAwMxRoBPSTyjQAQAAAAAAgJmjQCekn1CgAwAAAAAAADNHgU5IP6FABwAAAAAAAGaOAp2QfkKBDgAAAAAAAMwcBToh/YQCHQAAAAAAAJg5CnRC+gkFOoB12X5krORjuLzzD5l8DJd3/iGTj+Hyzj9k8jFc3vmHTD4G0CvvsTdk8jFc3vmHTD6Gyzv/kMnHcHnnHzr5KCXeeYdOPgoAAFiHPbF6BSAhpHv4pRXAumw/MlbyMVze+YdMPobLO/+QycdweecfMvkYLu/8QyYfA+iV99gbMvkYLu/8QyYfw+Wdf8jkY7i88w+dfJQS77xDJx8FAACsw55YvQKQENI9/NIKYF1jPUen7L+YrRxm65aU2YBNmfLjnNnKmfJsStN8U54NAAC0MOaTOiFLDr+0AljXWM/RKfsvZiuH2bolZTZgU6b8OGe2cqY8m9I035RnAwAALYz5pE7IksMvrQDWNdZzdMr+i9nKYbZuSZkN2JQpP86ZrZwpz6Y0zTfl2QAAQAtjPqkTsuTwSyuAdY31HJ2y/2K2cpitW1JmAzZlyo9zZitnyrMpTfNNeTYAANDCmE/qhCw5/NIKYF1jPUen7L+YrRxm65aU2YBNmfLjnNnKmfJsStN8U54NAAC0MOaTOiFLDr+0AljXWM/RKfsvZiuH2bolZTZgU6b8OGe2cqY8m9I035RnAwAALYz5pE7IksMvrQDWNdZzdMr+i9nKYbZuSZkN2JQpP86ZrZwpz6Y0zTfl2QAAQAtjPqkTsuTwSyuAdY31HJ2y/2K2cpitW1JmAzZlyo9zZitnyrMpTfNNeTYAANDCmE/qhCw5/NIKYF1jPUen7L+YrRxm65aU2YBNmfLjnNnKmfJsStN8U54NAAC0MOaTOiFLDr+0AljXWM/RKfsvZiuH2bolZTZgU6b8OGe2cqY8m9I035RnAwAALYz5pE7IksMvrQDWNdZzdMr+i9nKYbZuSZkN2JQpP86ZrZwpz6Y0zTfl2YAls8c/IYRsKqM+qROy5BQbGQB0NNZzdMr+i9nKYbZuSZkN2JQpP86ZrZwpz6Y0zTfl2YAls8c/IYRsKqM+qROy5BQbGQB0NNZzdMr+i9nKYbZuSZkN2JQpP86ZrZwpz6Y0zTfl2YAlG3PbI4QsK8XzKTsWQvpJsZEBQEdjPUen7L+YrRxm65aU2YBNmfLjnNnKmfJsStN8U54NWLIxtz1CyLJSPJ+yYyGknxQbGQB0NNZzdMr+i9nKYbZuSZkN2JQpP86ZrZwpz6Y0zTfl2YAlG3PbI4QsK8XzKTsWQvpJsZEBQEdjPUen7L+YrRxm65aU2YBNmfLjnNnKmfJsStN8U54NWLIxtz1CyLJSPJ+yYyGknxQbGQB0NNZzdMr+i9nKYbZuSZkN2JQpP86ZrZwpz6Y0zTfl2YAlG3PbI4QsK8XzKTsWQvpJsZEBQEdjPUen7L+YrRxm65aU2YBNmfLjnNnKmfJsStN8U54NWLIxtz1CyLJSPJ+yY+k3f/a2Lx3/0d98/vg3rr7x+BHPebd7nk3lP//X/+V+fSo5/G//5H49Jb/0gve6X59yio0MADoa6zk6Zf/FbOUwW7ekzAZsypQf58xWzpRnU5rmm/JswJKNue0tNU992Yd777Saok7pd//8M6tZ5tgRTSXqJ6fw85xLiudTdizrRRtvXXH9gU9949g84/c/Wjr9Yc9+1/Hfv++rqwdvfFqbPPa33n988zfvcK8jjjaWZ//hDavrbFu63/Hd769u07tu+HqrQlzX861//e7x37zrK6tZvfPURd+r29f1+8dIsZEBQEdjPUen7L+YrRxm65aU2YBNmfLjnNnKmfJsStN8U54NWLIxt705pqnbUf8j6oK804eKCl+jHs07j6JyfVMHmKoD+9QXv3183Ye/ltSBqWvTQbT6b1xQ6/772Ge/ufrvOuW1vl8dmf7bpUsMPeElH3TPQ06leD5lx9I9KnNFD9qqDcnOo43EO11HqBttlCrUvfM1RTOINu6mDeBN7ziRfN44X7759tX31u2svPz2//zU6vtMm+sNd5LaSczlXbJiIwOAjsZ6jk7ZfzFbOczWLSmzAZsy5cc5s5Uz5dmUpvmmPBuwZGNue3OLOih1Q+p4qg7IVBls+uxj1KupQ6vq11SKm6pZ9b3qrdSvbWJW68CufusX3NPjWMen+zQ++HNTb0RY/6eDTFNK/ThG3aB3Ojk9xfPp1HYs2nj1YBg6Oirbm6cuKoW1UUhV+W0Fuv4bn6aNyaQePV4VbTSf/8q/ri5LJXPdUdp6N0x0u+PT9O6V/UmMtyHazkO3PT6tLrp/pEtpH5bvz33Nx93zTDHFRgYAHY31HJ2y/2K2cpitW1JmAzZlyo9zZitnyrMpTfNNeTZgycbc9uaWq/7ys3nbcrLXqjpyW52VqE/yTt9EdOCpaI6qYthUHXmtnsuoG+t6kKrFuqzUztD6NpXl8WnWD6pkj09rEx0NL17PmJKuvd62png+ndqOJTzaeEhddwLaaLVRih6E8TpMtoF471bZhq3v6/KuURzdd7YhaOdW9W6bbdDextZUVtvl6x3I+LSqqDA3Xd6osPtJOy7v9Kmm2MgAoKOxnqNT9l/MVg6zdUvKbMCmTPlxzmzlTHk2pWm+Kc8GLNmY297cYh1PXWmtWNGu83unbyLqoEzVPMZbA129m1GP1PbgTS/WR6Ue8FrXt1k/uO6bEOtejv3Muyz/so0pnk+ntmPRBqIHQZfYO0P6r3d6XdZ54OhobyvRtXGFp1U9sPVv0fdt8sMPVJrbO4PaKLx32+y6vQ3adlhVO8UuG5rtcPQumXd6XfR4sKP85/buWLGRAUBHYz1Hp+y/mK0cZuuWlNmATZny45zZypnybErTfFOeDViyMbe9OUW9jmk6SNKWepE+i1frq0RHccdHxJv4gNHw+9ouOVwX67Pi22wHsOr0MNaZqZeLTwu7uvg0RV9PuW8p0IdN8Xy6pB2LPYi8Yrjv6J0tLaESF9beA7vNTqpLwsvXRhifXleg2/fqtsSnKW03NCvktaOt+tMZ/fmK1l7SXHG04zN6N9E7j0Wnb3JHuW6KjQxJzjjn4PzdvYOLds89uHx37+jK3f0Hv3hn/+haxe5LMsHsHV6/+hntHb1cP7edvYMnr36OWfIfLdZg97O3j+kzdr35GC5mK4fZuiVlNmBTpvw4Z7Zypjyb0jTflGcDlmzMbW9Osb4l9a/97fP0dP5NfUinF+vRJO54TFigh58t6JXu60SdmsQdmK6/Dyldm9cztgkFersUz6dL2rHYg8grhteNCmX7tNw28d5hsqPV9d/wvHHs+rx5mqJ1zHWd3lro2sikrkCvut42G5p2Wnb7NU94Wlim67o2RfOF1zNmio0Mlc445+hSFa87+0c32f1FFpS9o1t29g+vzv572d3v/qg75T92tGD3pbeP6TN2vfkYLmYrh9m6JWU2YFOm/DhntnKmPJvSNN+UZwOWbMxtby5RV9T2iHL1ONbxdC1vU6IuKeyJwj7JWIEelu2bLs8VmyO+j2z1DH09jM2j74tPsw8R1Xni0xTdzvjIei92HRTow6R4Pl3SjsUeRPqvd/o62WTJ28Y6t6XqiO+hCnR7F9B7N1Nf085DM2pddM0Ux36eUnWEepy4qB8zxUaGgkpUlak7+0evUrlq95Fyt3tdfvxjFz7x+JxLrzy+x8ELj89/yEuO73v51atc/KS3ufcxGT/2M7rnw162+rnt//zzVz/Hs+772OJnW2Tv6Jqd/cPHnXHOL5yZPyTQwO47777vM3a9+RguZiuH2bolZTZgU6b8OGe2cqY8m9I035RnA5ZszG1vLrEP7Gy71K76G1H5vsnliOOooNaBrPEHbhoVzeqTrKvrozxXqgr0qtg67F6ntu6Hf1qsK1MH5p1uvZ54BwLbGyfq5eLT7HEhFOwnUzyfLmnHYg+idR+MXuyytTHoQdR37PpUHHvzrBNtZOLdT7pu0YYTn6akFujhu5nxUfDhB5XqKHzvKHnFCvgpHVXeJsVGhhUVp7v7hyfsflF+5D6PXhWu93vMG9z7kMw7Fz7+zas3QlSohz/37LFw2+7e0ZU/dN7BD+cPD1Sw+8y7f/uMXW8+hovZymG2bkmZDdiUKT/Oma2cKc+mNM035dmAJRtz25tDrASXqj6mLuqLRGWrd/qm4hXiJjxSW0sHh+fpkvDzGHV51s2pZBYdrKkPErXzVN1v+rBV3T/e8sJ28Oi6SzlbX6jL8k63Xm9dTb3ftqR4Pl3SjsUeRF4xvG7ssvWA907fdLQhyBwLdO14bCcTv1sYLuui8lxlurdT1NesgJ/SUeVtUmxkWy4/4rxYokWluUpVlave/UaWmZ994luPL7jsFcc/ftFTim1Df4WgNdNZ3qWa3Vfefdpn7HrzMVzMVg6zdUvKbMCmTPlxzmzlTHk2pWm+Kc8GLNmY297Uo77GOhkdIOqdpyk68tz6mi6dlfVOTcsaezHekdV1sS6rqnRuu6Z52A3qMtdJ256xqUDXz1j3seL1bXW9Xng/pCwnsw0pnk+XtGPps0C3P7WIy1y966QHrd6Jsgdom9g7WPG7V023RQ9klc/eZdq7Zd73Kbq+qsvW94l2MPFpSlOBrh2pnUfiD/60+1Hq3nXT/SzaKWvj984z9RQb2Zba2T84zG7/++1+0BIt93r4Ve59RbYrWvIlPCp99QbLuQeX5w8dBOw+8u7HPmPXm4/hYrZymK1bUmYDNmXKj3NmK2fKsylN8015NmDJxtz2ph774FAtj+KVq6mxzkbadnDWO41BvZQ3ky0Ho87K6690G9VvWSGvLs++N+zAutDyM+EsYVSux0sa2wGrmiP8uubTEfDe5YShQG+X4vl0DjsWK6lVuNb9AJtK53WiB6ZojvDrejBvQvyOk22oVRtS0w6n7k9YdBukjwJdO50UTe90Vh3BPqcUG9kW2t07ernd/rte8IjVEefefUS2O/d+5KtXf5FgjxWtkc6yLqcr7puRko/h8s4/ZPIxXN75h0w+hss7/5DJx3B55x8y+RhAr7zH3pDJx3B55x8y+Rgu7/xDJh/D5Z1/6OSjlHjnHTr5KMBWsce/9xpkm2OdmTzhJR90z9MmKnZNmx4uPEK6KTpwVEeqx8JlVtqkTSkc3l/6Xu88SrjMS3x9dbHLr7vvrL9LlfJzoEBvl+L5dA47lrCkrlvOI+XB1zV6l06lcvxujh5wog1aD+y2sR1B/MDVmwb6WtW6Svq65lHCd8iqLi+Mzife/WS3p2uBrqj0tz+n0f/bbHqHU+J3OnVZuly7PeGHFmhHpK/ZDknfG17XlFNsZFtE5efO/tG1ut1n3uOhqw+V5ANASVO0tMtdzr9stb3s7B3esHvewVn5Q2rr2X5krORjuLzzD5l8DJd3/iGTj+Hyzj9k8jFc3vmHTD4G0CvvsTdk8jFc3vmHTD6Gyzv/kMnHcHnnHzr5KCXeeYdOPgqwVezx77322NZYDyQpRymnRp2P2XQXp4NorePSsjPWV4lWK9D1beKNgKrYUjdSd5CqOiup68m82M+k7gBTXaZ1apaqI9CVlPXVKdDbpXg+ncOOJdxI6v7EpM8CvSo2mx6A3ulNsQduVVHeNikFtzYq6atA96Lbpx2cEt/W8OfbpGquKabYyLbEnfcffPaq/Mxus8pQLdPh3S+EePmZx77x1NHoe4ff2N07uCh/aAEAAABAMnst7r3u2MZYByQ6alyls3qYdZbL1fcr6nfsYEnRAZHrltqaS6sRGPVAWu1Ap3l0/TpSfZPL/8Y9lbqscNmWMOsW6Pqvd3pVrPts+30WCvR2sf3JrAp0vfvjnW6xB5HejdEDKSXe5bSJzbZugb6pB+YUC3S96WHvkHn3efjnO1a0S/jOmc3sfZLxVFNsZFtAZeeq9Mxur0pQPiCUdIk+aDT8kFF9wGj+EAMAAACAJPZ6wnvNsU1R12JrnouOFlc/Y73OJqirUZ9lnY/RUdVd1lhXER4e+R13SEb9kd4MsP5IdLS6vqbP5gu/p0vC5WlMVYluBXpXXk9Wl3UL9LqVKyjQy7H9yawK9KaS2h5EbXiX0yaps1XFdlyb2MCVlILbyuihCnS7Pr0T6Z0ext5l1M43/HrdzFNNsZEt3BnnHF1qt1Xlp0pQ7/4gJDV7P/ecYvvZ3T98ev5QAwAAAIBG9lrCe62xLVFnExbR6ljsCG3rdfRfdT9KWIDbkrx1MSq8dZm67HA5F9GR4SlHo+t7dTnhkexV32tsZQN9r5akCW+raJaqI8abouI/LObFZtPX42VSwvuji6ELdOP1ehTo5dj+ZJEFujaceOOuinc5bWKz6R0cPXjbJmXN8jZJKbjrNja7PVX3TdsC3Y4o1+1s2vj0Jzm2k4rXl9KsQoE+LVq2xY48P/uBz3LvB0K6ROui2za0s39wmD/kAAAAAKCWvY7wXmdsQ8LPERQ78tw7r0UdjLHlUupi4jI5PHJb11t1WeqHdJ3qeMKyWv9fd/S68Top3e74SHj9O2Vd8DD67EVRt2if0acyPvy8Pl2XnV/9mbTt9azn8rq5umyqQPc6Ogr0cmx/ssgCfciSNdzJrKPuAwnaZEoFunZ4tvNKuX22o9VOKt5ZUqBPT/6BoTfpNurIc+8+2FQufdo7jn/lRR8ofV1/uaF3nHW6vZteF+8y/u49Xzl+5ZvLH6Lyh3/12eNXvPGmysv9H3/9ueObTnzn+OG/7j+pPPOqjx2//5PfqNxWHvT064+/dusdq+tPmV3R7fzITd9cbSt1c33v+z84fuYrP+ae7kX3i25LynY9ZM47etFqG9rZP7ztjHMOzs8fegAAAABQyV6Le68xtiU6Klv02tE7PY6VxiqwvdPjGO81pC7Ljkz3Eh+pbtT31JX3Yblb1zHpttvBqqZunjjWe+l2hOW4rt+OdNf9ZLNOqUDXqg6apy7G+0uD8E2C8PRNfvDs3GL7Ewr0NaN3ofRg0jtkevDG0WnawLSD8E7X9+k8Xf+0JM6UCnRbjiX+eWgno3frrvvw14qdnm6/0fl1+WFsZt2P8WkWXYZ2cOF1jZliI1ugu9/9UXfa2T+6VrdPa573vWyLSmGPFcXhum51Ttx8W6l4/s3XfXJ12iv+4vTHji7zLe/8cvHv577mE8cvfN2Nxfdrpg9/5tbi9Dj6fl2fHpve6XoXvG3RrQL9hs99qzRrGF2udzurYpep79G2qf9PFd4/feUn7v+01XakN2vOOOcXzswfggAAAADgstfi3uuLbUqbI4itv9FSJd7pYXTAo+nygaFhES167WxLstRFr1fVVaV0aDqvOifRgZ1NR+BbVLSLHdip6xJ7Xa//qpwPr99K56rX/lVRJyepb3JY6jo9m3fT4l5vm2L7Ewr0nmMbhAxR7qYU3LZBhX9yYrH7WueJT1NSC3R7t1M7Xx0lrKJcO+Tw3SyxHbreSNiEpsfIkCk2sgXa3Tt6uW7bXc6/bJQPDLXSt6rAVbmtd4Srjg6PY0dth8V0XKDr32FhXleg64ju79z2vdpyPL68urzgT248fvrvfaSXAj3lvtJ52lzmJnPxk952fNZ9H3tye9o7vF5v3uQPQwAAAAAosdfi3usL4sfKZv3XOz1MeCR4m5I+jApodURtvl/9mqI+KrUQ1/WkfuagSncr9q2cjgt0O5/9v2I9WVcp93mYugJdPZ/6OM3rJewo6w5QDaPLa7sMzpJi+xMK9J6jB69oI/RO33TaFOjen7zYfb1OgW7vXNbR5YQ/J+2AVOJ5f0Ki2PXqfvROt6S8WzpUio1sYbQetW7Xmfd46PF9L7/ave195UkvPfnudlOhG5ffKdFSKu/++C3Fv70CPfx3XYEen9eK7xRxmW3fq+vSdhIX6JqjSdWc+t6Uo+DHLNAVvUlz1wsesdqedvaOnp8/FAEAAACgxF6Le68tiB9bfld9jnd6mE0U6F1idAR4XGJvIrascNvlWXR+dVZxP5US3Rb917vcqtQV6E2x7xU7yt47HzkV259QoHeI5tEDVeW4/r8udmS1dkbe6WH0pyJ2ud71pqSq4A43ClsLyvsTGX2fVG3AVZcfxtbOCun2a0es0r7Ljs7eJev7Z7vJFBvZwmS36f26XVqf2rvdfUVHdd9+x/ePP/TpW92ju209dFtbPDxdJXTb8rdrga53ZsMS3Ir58Prj89QlPOp8U0eg63L0LndYnl+RbdNV3zN2ga7c+5GvXm1PJ9dDZykXAAAAAD57Le69riB+7MjrlJUT9NrbDPUaMSzt26xnnhp1VSZc71vdmNR1YFXRnOrC1CVs8gjudQp06/SMd2AtOT22P6FA7xBbE6kv2ri8602JV3CrPLc/CbEdnco7Oz3MJgp0XZ8uX7dDbwZsYodKgT4Nu+ceXK7bpKOBtbSGd7v7jJXoXpmrx1ud1OVSLHFhHv/bK9BV3n/jW/+7KLht3vD7lPiy6mKX4fHuh6YCXeX566/94mnluc1d9X1TKNAVWw99d//BL84fkotn+5Gxko/h8s4/ZPIxXN75h0w+hss7/5DJx3B55x8y+RhAr7zH3pDJx3B55x8y+Rgu7/xDJh/D5Z1/6OSjlHjnHTr5KMBWsce/95qClKPXkCZlLXLrjcQ7vS66fPVNinqe1IQrHehIce88KVGnFH8gptZxV4cl8VHZ6xTouj7RZW/ySP2qAl1luFZ1qLou3ffGPsi1qvsjp1I8n85hx2Ib51QKdHtnSkdyhxuiF1tHSrN7p4exP5lp+wECYbyC2+4X7RRsSRldV/h9Fruv1ynQ142O2tcOLSzrdP9I+LPVWlZasqWPP93ZRIqNbCG09vTu/uEJ3abzH/IS9zYPkS6ldHyaHckdio/q7lKg6zyx+Dyav2l99DBhIe4dgR6X2ilHoMdpKsinUqDf7zFvWG1TOgr9zvsPPjt/aC6a7UfGSj6Gyzv/kMnHcHnnHzL5GC7v/EMmH8PlnX/I5GMAvfIee0MmH8PlnX/I5GO4vPMPmXwMl3f+oZOPUuKdd+jkowBbxR7/3msKUo71VipfvdPjWG8k3ul1Cb93LHFnqMLZ7oP4CHyvQNf59e+mhPerd7qXlKLdOj71ZDpIVm8u2F8QSNWyLOrZRPOoR7M3DVLeNNnmFM+nc9ix6EEkUynQU+dRrLBOeVcn3Ai801MSF9x2/aLi39Z0qrqP7LaNVaCHfzaj67JyPC7QtZOwjX2q75gVG9lC7OwdPFm3Rx/o6N3ePmNrn1v087f/V6msUjosuJ951ceO33nD14uSOi6/w3iltNKlQNdcNquKbD1GbZkWr1yXqrkUm82uJ57VjhxPFd9Gxd6QCE/T9YTnmUqBrvzkJc84uW3tHV2TPzQXzfYj3n3RZ+x68zFczFYOs3VLymzApkz5cc5s5Ux5NqVpvinPBizZmNve3KLC1qQuJ6yDGUWlrXd6XXR96ncUFbrqllJiB5zqyGkdSCnqjDSLd/446prsevVa3ZtNRXJcPnsFuvVTfdBlh9fvxYp568RCOtDX+x51a1ay28/ZjurXfVtVupPg+XQOOxY9UKWpsKZAP73g1o7ENij7IAjb6VStGWW3bYgCXfOF/w43aF1PWJLaDir82YZrrcd/gjOFFBvZAqyOPt87+rJuj9ai9m5vX6lbwsSoYA4Lbq+8HqJAt8RLuVR9vW4uRbf901/6dnH+qlm7xuaJZ9BcYWGu2xobq1C/6Ff/dvUBtnosnnHOwfn5Q3SxbD/i3Rd9xq43H8PFbOUwW7ekzAZsypQf58xWzpRnU5rmm/JswJKNue3NLVaiqnhNLVGt50rpxDaRcOkR9UjhAZUq1L3v2VTqCnQdya3TvVjJH1If553XIl4fqOtWh6fX6faZhiH9HHSwbNyxhdH3SrhETXgUulaCiL+HnEzxfDqHHYuVuk0bJwX6qYJb5bJtWHp3SqfZTkcbiB3ZHcduW9W8dvnhzqNN9G6jNkxttPGfB9kaTJo7/rMVr0BXwnfetERNeNrYKTayBbC1z8c4+jxOuESJ/t/W8g7L6LEL9Krr09fD76mby4vN+so3f3a1jnnd91o5XjWjXZbElxPftikdga7s/dxzVtvWzv7Rq/KH6GLZfsS7H/qMXW8+hovZymG2bkmZDdiUKT/Oma2cKc+mNM035dmAJRtz25tT1LvYQYx20GVK7HMBU3quTcQOBFUpbV+zrk367ACt2G7bgdn3aXZ1X6LX/955qxK+cRDTfaGeLDzwtCrhSg/6//C08DMeu/Z8S0/xfDqHHUtqYU2BfqrgNuGfYljZbIW6FxWPUnXbuhToun5tpFaQm3COcKPVDOH3K1UFui7b3tnTf1PfMR0ixUa2ADv7h1frttzzYS9zb+uQsQJdbwKpALbyNyyjxyzQdd03nfjOqmzWk9nr3vqF42ve/s9JR9JLOHecsPT+l1tur90OVaB/7dY73LXWH/PC961m1P14/UdvLt03Uy/Qf+axb8y3r8MT+UN0sWw/4t0PfcauNx/DxWzlMFu3pMwGbMqUH+fMVs6UZ1Oa5pvybMCSjbntzSV6bWddikr0qoMsvdhR620L4S4JVx6I1ye3OURHYPfRB3Up0K1XEx0VHhbhcYHdFCvfRX2cbnNKaW4J3ySp6kqtK9T5pnZg6hRSPJ/OYcdCgZ4W7SxUvhnNZzvB1A226U9x9HVp2nloZ6zr0Q41/hMTbZThRh/u9Kpue1WBroS3re+ffZsUG9nMafkWfWijbouWz/Bu65CxAl2PMRXKVuqGBfe6Bbp9rW2B/puv+2T+SDxFv5T89uv9JZPq5oqjy7btL54rhc2q26YnSBXwun+8GaZeoCt3u9flq+1r59yjn8ofqotk+xHvPugzdr35GC5mK4fZuiVlNmBTpvw4Z7Zypjyb0jTflGcDlmzMbW8O0es6O6pbr5vblMOKlcp9Lvuhfss+w090QKZXkIfn0Wtv9UPxedZJ2wJd57MOTK+17evWe+m0NiW1ug1dTtufkRLOoi6h6g0G9YZWsuvx0LbkX3qK59M57Fj0Q5eqUtcy5wJdD2R7Z6lrgR4W0XrQhzuOcGOt2mgUzatZq9aRSinQwx2Y0fXq5xKuyaQ57J0uqfu51RXoSnjbtYPxzjN0io1s5nb2Dw51O370fo93b+fQCQv08OthERwXvl5JbIkL9Oe+5hPH/9d/f3dpDfP4MrwCXUeZ3/iFbx3/6bVfXP1/eJrlBX9yY7H92GVqhr9/37+4BbWKcx25rqVq/uqfvrw6cjw+Wl7fH39v3RHoYbz7Zg4Fui3jsrt3dGX+UF0k249490GfsevNx3AxWznM1i0pswGbMuXHObOVM+XZlKb5pjwbsGRjbntTj3qYcHWA+KjupoQHMNatub1OVOiGR15XleeW8Ch1dWH6jLxNvXZtU6DbgXwSrgahhPe7ztPXfWexDk3U48XLJMfRz9XKdpni5wyOleL5dCo7FituFb2LpR+2xYpx/TDDr8exd9D0X+/0uth1pzxIrBTXg947PUxVga6NR+/waKeg00Jd3+3R99nGGpbI+rpZdyOwAr1uY7fbLLp9+ne8swt3HtL0pod+RnXns/tTNGN8fWOk2MhmTutM63acd/Qi93YOnZQCXf8fFsBeSWwJC3SV3t+57XvHf5BtJ/pvWD7Hl+EV6E2xZVzCOfX/VR/mqeg0let6wo7LfsW+Fi/psvQC/b6XX73avnb2Dm/IH6qLZPsR7z7oM3a9+RguZiuH2bolZTZgU6b8OGe2cqY8m9I035RnA5ZszG1vylE3Y52O6LWgdz5FJbZ6GL3GVP+j/9fBktY5qX/ZdO+i69FMoaby3KLvDQtgzan+aN0lSayvqyvQVT6HB4eqk/ReO+t2WG8pmq+p2G4b3d6wa9P1pS7PE5fo+t6pHKA6Zorn06nsWKwgHVtTkauE63V7p4exMlkPvPg07zZro1tnJ6QHt3Zq9m/tRGwHpxnW3cHZzla3yztd0XXofgyPgPei89lO2Ds9jN5UER1p7p2u6LarsN/0Dqhrio1s5nb3jm7R7dC6097tHDpegW4lclUZ/Xfv+crxuz9+S/HvMPa9Orpb5bY+oNO7jrYFupYo0vXqMlV42/VUFfu6TomPLg/jFejh17Wt27I1Sy/QL37S247vcv5lJ7ez8w7Oyh+ui2P7Ee8+6DN2vfkYLmYrh9m6JWU2YFOm/DhntnKmPJvSNN+UZwOWbMxtb4qJi3NRZ9PUD8XfE9LrV+972kTFrjor9T3xdamgr+udvOjyvBURtLSLujb1T7q+Np2RFejxga6673Qf6H4M6d91r5t1Wli26zW8Zk45wr0qukz1lLamvdHsbV/Dq8eLfxbbXqQXz6dT2bHowaIH89hJeVCEs3qnh7ECXQ/A+DRt3HpAa2PRZbX5IICU6IFv5bmss0FabEPq8885tIFrp2P3cbg8y5z+jKTYyGZM60vrNvzIfR7t3sYxom20rsxVIazH/aOe995Vqfz+T9Y/aVj5LCqS7d9xqZxSoNuHhtp2oqPCf+cNn15t67rMlFI+LMHjVBXodtrbPvi1YjtfeoGu/OQlzzi5nZ17cHn+kF0c2494t7/P2PXmY7iYrRxm65aU2YBNmfLjnNnKmfJsStN8U54NWLIxt72pRZ1KSEcYpxbT4dIoRkc3q4T2zp8SXbcuw1YQiNnKE+sc/KkuLF7pwej1dpvuzV7bh/eZOrywaxPdnjb3i+5b7zJUhHvnr0p81LjoctfpzvS6Py75276ZsaQUz6fsWPqN7az0gPZO7zvaMejdvJSjvFOinZDS98YT/smJ0c4k9U9PppBiI5uYi5/yj5f+x//72jPzf9ay9c9VVHq3cYxUFeiPeeH7VuuDa61wK41VKmvHH34tji2rYoWxLt87/x/+1WdXZbj92yvQ7Xt1tLutgW6ltzdzXF57R8+HqSvQ42xDga5lhVbb2YzWQb/4qW+/6IFPuj75iHnbj3i3v8/Y9eZjuJitHGbrlpTZgCoPeMo7LlPyfzaa8uOc2cqZ8mxK03xTng2YmzavY8fc9qYYOyhRPUubTsVWDdDr3E0ckKloiZG4OBYdPa3r2mTno3JZtz0s69t2Wfa94Vrxuj+MFf5dXitrvrD7Ulnf5fbrZ2Mluvq6TR2cq9us27+pn/1cUzyfsmPpN3qgaWNSvNOJH1u3XTtR7QD07tmcynOl2Mgm5pKnvONVlzzlutsuvuK6Fzf9ArKzd/Bk3QZ9YKN3G4eMPtzzxX/6qePrP3pzUeaqUP6DN920Ks4lXgfcogJYqoppXYaO+rYCOy7GvXgFekr0ZKbb8dI/+3SxvEt8evjvME0Fuk7XUejvzJ6E3/OJW2rfOLBYgW5vJLSRcvl95oLLXrHaxrROf/6QnbyLn/L2K1fzZ9thSpFu+5H4tvcdu958DBezlcNs3ZIyG1Dl/lf846vzx9KJlCJ9yo9zZitnyrMpTfNNeTZgbtq8jh1z25tq1l0LfJOxQl9Lg6ik3VThWxf1BGEJnpqqg0it59vEQWaaTUX6Oj8j3YddP0+R1Kd4PmXHQkg/KTayiVn94mFzNvwCsrN39Hzdhil8gKiV4F/66m3Hv/36U3/WpHd/9UZLeHS4l9983SePr3n7P7unWXSUuS6ragmVMJqnal31ulhJb0eqt3nCtQK96o0Axe6nm2+9o/H2KirQu7wRMIXYB4nu7h++JX/ITl5RoFsainTbj5z2PQPErjcfw8Vs5TBbt6TMBlQJCnRLbZE+5cc5s5Uz5dmUpvmmPBswN21ex4657ZHm6Mj2qXx2HSFNKZ5P2bEQ0k+KjWxiTvvFw1LxC8jO/uHVug33evhVp5+fkAlEH2yrx+fO3uEN+UN28koFuqWiSLf9iPs9PcauNx/DxWzlMFu3pMwGVHEKdItbpE/5cc5s5Ux5NqVpvinPBsxNm9exY257hJBlpXg+ZcdCSD8pNrKJcX/xsES/gOzsH12r26Ajfd3zEzJifvaJbz25ne0d3bJ6cM9AZYFuiYp024+45+0xdr35GC5mK4fZuiVlNqBKTYFuOa1In/LjnNnKmfJsStN8U54NmJs2r2PH3PYIIctK8XzKjoWQflJsZBNT+4uHJf8F5K4XPPLzug0XPv7N/vkIGTlnnvfQ1Xb2Q+cd/HD+EJ+0xgLdkhfpth9xz9Nj7HrzsV3MVg6zdUvKbECVhALdsirSp/w4Z7Zypjyb0jTflGcD5qbN69gxtz1CyLJSPJ+yYyGkn2i7OvfgN9zT5pKLn/QPPzjn0isp0Mlkc9cLHjH77awuYz1H2/Xmr1dczFYOs3XLWNdLtjNjP87zzc3FbOVMeTalab6xZzv7/3yW/v9aMlpuyVL62ZD+M+a2RwhZVmx/MuqTOiFLTrGRTUzSO/dZLr7i7e//yQf8P5/QbfjpR7/ePQ8hY0ePz539w9vyh/fkJR+BfsV1Nz3giusut/2Ic3qvsevNx3YxWznM1i0ps6FMf6WS3X835f/cWslHoD/luu9f8pS3//mUH+fMVs6UZ1Oa5ht7trv9H5cfX/zUt19Exst/fNK1s/gryTlo8zp2zG2PELKs2P5k1Cd1QpacYiObmKZfPPQLR/Zi9FDn3d07uka34d6PfLV73iXkV170gePv3Pa947e888vu6VU5/G//5H6dDBf9ZYQenzv7R7MpkBIK9FVxnp+dwsIJs3XL3GdDGQX6SY0Fel6cW4k15cc5s5Uz5dmUpvmmPBswN61ex4647RFClpXi+ZQdCyH9pNjIJqbqF4/wFw6zu//g1fpx93zYy0rnX0oe9PTrj7926x3Hz3zlx4qvXfq0dxzf8LlvHddpW7iTzUcfbqvH587+0bX5Q3byagr004pzY/sR5/y9xq43H8PFbOUwW7ekzIYyCvSTKgv0qDg3U36cM1s5U55NaZpvyrMBc9Pudex42x4hZFkpnk/ZsRDST4qNbGLiXzy8XzjM7v7h03Ub7nHwwtNu25JSV6C/4i8+c9p5LX//vq+WCnQdyX77Hd/P6/V6VZdbF12nxy7r2X94Q/6V0334M7eWLmspudfDr1ptYzv7h1fnD9nJcwp0tzg3th+Jvqf32PXmY7iYrRxm65aU2VBGgX5SqUCvKM7NlB/nzFbOlGdTmuab8mzA3LR7HTvetkcIWVaK51N2LNud//xf/9eqePNOI+ul2Mgmxn7xqPuFw+yee7Bag/nsB64+gGiR2VSBbvG+N/xaVREuJ26+rXJpmPg64+vRdhx////4688tukA//yEvWW1jO3tHz88fspMXFOi1xbmx/Uh4u4eIXW8+hovZymG2bkmZDWUU6CcVBXpDcW6m/DhntnKmPJvSNN+UZwPmptXr2BG3PdJvnvCSDx4/4jnvdk+ry1Nf9uHj3/3zz3T6XrLdKZ5P2bEsMyrb3vSOE8e/9IL3uqdbrn7rF1bF3btu+HrjeUm7FBvZxGQvLp/c9AuH2d07uEi34ccufKJ7G5eQTS/h0lSg699eAd9UdlOgl7P/889fbWM7ewdPzh+yk6fSPKU4N7Yf8W5/n7HrzcdwMVs5zNYtKbOhjAL9pEuect3/m1Kcmyk/zpmtnCnPpjTNN+XZgLlp9Tp2xG1vCVGX9Kkvfvv4A5/6xqQOuNQBoF+++fbV6/HrPvy148f+1vvd83nR+c2fve1L7nmGiAp8Svx5pXg+ZceyvKhAu+O7p5aSeO5rPu6e72HPfldxvm/963ePf+PqG93zkW4pNrIZ+6HzDn54Z//w9jPv8dDjn33iW93bOcdULXciKqm9EjyMV4BbuhbodZepUKCX8yP3efTJ7Wzv4KL8Ibs4Yz1Hp+y/mK0cZuuWlNlQRoHezZQf58xWzpRnU5rmm/JswJKNue0tIX/0N59fvTZWX6TeyDvPGNER5Obmb96xOhrdO18cHSxqdPBo1V99byJNl233rWgW7zxkWimeT9mxpEXvEInegRsq2iFo4/LmqYuKcKPSzTuPonfdRNfDO2CbT7GRzdzO/tG1uh0XXPYK93bOPX0t4eKxy4uL7abrU3SdnrBA9yy1QP+Zx77x5Da2d3RL/lBdJNuPePdBn7HrzcdwMVs5zNYtKbOhjAK9myk/zpmtnCnPpjTNN+XZgCUbc9tbQqzk/dhnv+mermhJlHXSdgWE8ABQHR3fpgS37qvvNwSe8fsfXfVrv/0/P+WeroR9nd4Q8M5DppXi+ZQdS1q0kY2hy1HhehdLtOFW7RzCsk3n8wr8MCrv9Ocy3mURP8VGNnM7+4eP0+34yUue4d7OuWeMJVzio8W9GVKjy/re939QfK+21X+55fbVLyXxeZeU845etNq+dvaPXpU/VBfJ9iPefdBn7HrzMVzMVg6zdUvKbCijQO9myo9zZitnyrMpTfNNeTZgycbc9pYQK9C17Il3urKuv3nXV9zLrYrOLyrB68p3vcYOT9fBola8pxTWVvB3KdrVnYmur+og1bBAb7MEDRkvxfMpO5b0GC2JYhuVF52uDdM7LTUqtUXlmDdLVbSzsJ2D1jf3zqOdiZZsaUMzeZdFqlNsZDO3e97BWbodZ5730OOLn/Q297bOOeuU115SCvRfedEHjm/99nePH/7rJ59U40K9TeLv1XX93Xu+0vny5hKty7/axvaOLssfqotk+xHvPugzdr35GC5mK4fZuiVlNpRRoHcz5cc5s5Uz5dmUpvmmPBuwZGNue0uIFeh1Jbd6p/jAy9Toe9sU6FqqpQ27bB0EqqPVu+hyMKtKd+vadDu984QF+hCv13Xf6efZZXULcjLF8yk7lvSYpuVO7MMJ9OEGbQtwi30wQtvi2taE0g7Je8dMG+jnv/Kvq/NopxKW9mFshylsaN1SbGQLsLt3eL1uy33+yx+7t3XOsQL9D/7ys8c3fuFbRandNSkFuq7zG9/638W/65aEqVq6pY3wCPUlROvx6/G4s394m9bpzx+mi2T7Ee9+6DN2vfkYLmYrh9m6JWU2lFGgdzPlxzmzlTPl2ZSm+aY8G7BkY257S0hKgT5UdJS2ldLqyazPEvugUyX8us0dfnColqPR+axrk/D7LaZLga6oAzTeUi5hgR6ftsnozQMdVBvyzkeaUzyfsmNJj6kr0FU+Gy2l0nXZky4Fuq7Ljlz3/tRGOx673LrZ9HU7n3YyXW/DtqfYyBZgd+/oSt2Wsx/4LPe2zjk6Glxltkrma97+z6t/337HqQ/hbRIX31aWe8JSXcW41idf5wh4raWu5Vpe+mefPr7pxHdW///03/uIe94lRevxn9y+Dt+SP0QXy/Yj3v3QZ+x68zFczFYOs3VLymwoo0DvZsqPc2YrZ8qzKU3zTXk2YMnG3PaWkKkU6OrDrDxX16UuTv2UleUqvL3vU8LyOPywzpSjxNeNFffeUi5X/eVnV6epcwu/vsnoqPPwDQXjnZc0p3g+ZceSHlNXoNufh2iD1AcI2BHdXrTUS9W7Wl0K9PATieO1lPQumC3tohnrSvE3vePE6ny6DU1H25PqFBvZAtx5/8Fn67aceY+HHt/vMW9wb+/c8pgXvq94Yms6QrtNyZ1yBLqibVLXqxnaLrdyRbZfUGH+7o/fctr3veBPblx9XZf7V//05UWW6VpG6G73uny1bWl9/vwhuli2H/Huiz5j15uP4WK2cpitW1JmQxkFejdTfpwzWzlTnk1pmm/KswFLNua2t4RMoUBXn2Ydlv4bdlz6fztNHxAafl94Hh0Qql4rXp0hPAq8jxUXdN0mLO8Vu2/rPqB1ncRvHKh3NN75SXOK51N2LOkxVaVyWGCniHcCYdoW6CrE7ejzcEPUeufhn62IdjDaaL2EG5vejfPOo7Qp9rc1xUa2ELt7Ry/X7fmJ+z/Nvb1zii2hoqL5j//286VyXKe/7YNfWx2Rbv/edIEeHqkefj2MzvPiP/3UKjrKXDO9M3sS/NNrv1hbuOvNgb+47p+LI+l1O/UO9BK22/Mf8hLbtt6fPzQXzfYj3n3RZ+x68zFczFYOs3VLymwoo0DvZsqPc2YrZ8qzKU3zTXk2YMnG3PaWEHU+MlaBroLbCnLxlka2I7lFJbF9Xd+rPs0OVq36wNGwJ+vjdbIuX6/B4+vXfSpxsb5u9CaBukDRmwZ2+3XbTPw9JC3F8yk7lvQYr0BXEW5/BqINJS6cLeGaSuFGHqdtga7LNvZnKPF6R5uk64tnIKen2MgW4oxzfuFMrTmt27SEo9BVMquE9spxK9it2N5Ugf7+T35jtc66XY6tb15XoFvJXsW+t2qtdC3rouJdHywaX/7corXP7/rvH/EDPQZ39g8O84fmotl+ZKzkY7i88w+ZfAyXd/4hk4/h8s4/ZPIxXN75h0w+BhJRoHfjPfaGTD6Gyzv/kMnHcHnnHzL5GC7v/EMnH6XEO+/QyUcBtoo9/uPXE+T0qMzVgZjqkMJYHxWfZp1X3wdmqTC31R10oKp3HkUziVZR0L/D9cdFl1F14JkKZzsItY83CnT53soPVqBv+jqtKFcxHx5xT4G+fornU3Ys6TFxgR6W59qAq5ZH0fma/szE0qZADzcI0Qz6uv3Ji6IPLzBVR6DbGkna4LzTFZvL+zAEcnqKjWxBdvcf/GLdph+78InubZ5jqgr08GtWqIeqln2x0ltP4q976xeOP/2lU5/6re+5/iM3r57EtX65/v2eT9xSeVmWulI+LNDj9dh1HVpnPfzanLP3c89ZbVM7+0fX5g/JxbP9yFjJx3B55x8y+Rgu7/xDJh/D5Z1/yORjuLzzD5l8DCSiQO/Ge+wNmXwMl3f+IZOP4fLOP2TyMVze+YdOPkqJd96hk48CbBV7/MevJ8jpsTK3rb4LdEvVig0WFcU2S7jki9ia6fH3hFHhbkdqd4nWGve+Hkav/TWjxd4Y0Ov38OteNJt1cU0dnO4r77bockx8GklL8XzKjiU9JtwI9WcjtpGqXNbGoSO/4z8x0ffYu1spf6qRWqDr+uy8xgp0Rd9vfzJi56vaiaRcp73Dt85OZltSbGQLoqPQd/eOvqzbde9Hvtq93XOLV6DbO9dWTqccga4PH/3SV29bfZ/Rm1Iq0p951cdOK7vjy9eTZ12JToF+3fFFv/q3qzX49dg745yD8/OHJABsLQp0AAB89lo8fk1BTo+6Im+JE+uG4qOk1RUpVUd1jxX1U2EvF36uX5/d1ZC6Lvmin5fxTifNsf0JO5YWMVZA60huow1TOx696yXaeG1D1TtBYXle9wGelpQyW7F1m3R9Nk9YoIepK9D1zp3odsSnhaFAT0+xkS3Mzt7Bk3W79EGOKjW92z6neOW4yugPffrW4+/c9r3VOugpBboK7Y/c9M3VMi3xh3eGZfdvvu6Tq20oLLt1uq5TtNRK/AvJthfo+uBQ/dXDapvaO7omfygCwFajQAcAwGevxePXFaQ5OqraeMuMqKMKVylYN3VLtDRFPZY6NqO+yl5Lq5sLe7hwWZNNZR1ar1zzNsU0rWJRFQr09WP7E3YsLWLCAlobvEpn+9MSleNhsa4N1ZZ3SS3PlaYCXZdjhZtoDpXaoo3M+566At0+AFWFfHxaGNuAKdCbU2xkC3P3uz/qTrt7h9frtqnUVLnp3f65JC7HdXS43pB6+K+/e7VO+k0nvrN6zOsIcb2TbR/qaWn6QE/Fym47Qv3dH7/FPZ/Kc9G65eG2v+0Fui3dsrt/eEJ/BZE/FAFgq1GgAwDgs9fi8esK0pzws/TU/8QdlrqnTVJPFV5+atRJWdcmXsEcFux20Okmi3TdF1paRa/dlaYlXazMbjpwNYzpuoyyXad4p5Pm2P6EHUuLmLiA9kpxW6LBaKfQ5s9c6gp0XV/4LpveudLXmgp0e/dNOw1t6GFs/XN9b3xaGJuLNdCbU2xkC7RaymX/8IRu3zmXXune/qlH5fgr3njT6k0jWz5FR4fffsf3Tyuq7bz6IM54iRZJKajDsvu/v7r8CeJhnvuaT5S2e/t+T1ige+ZeoN/zYS9bbUf6ANudc49+Kn8IAsDWo0AHAMBnr8Xj1xakOdYNGfVNYems3kmvob2+yGLrfDf1SzpATa9jw+uvizo1LaNsvZRoXh1t7p3fov7K+jDRkfXegaV9x5aWSf0AUc1omm5jVSjQ14/tT9ixtIhp2tBUnocbtNG7THo3L+Udr7oC3Ypy0U7ALq+pQN8k7ey86yCnUmxkC6Uyc2f/8HbdxvMf8hL3PphydOS5Phj05lvvWC3TopJaH/qp//fOv07suuJiPjVVR6BryZiwQPeOQK862n0O+elHv17rnv9Aj7Hssfa4/KEHAMhQoAMA4LPX4vHrC1IfrazgUe/U9IGeYezDSTfRG+lgUZXHukxb51zUr7VZ/kWXo3nCo9b15oAuw1sHvo9Yia/uzjs9Tvjz6Fr4U6CvH9ufsGNpEVP1wNWfa6i8NrZBq1C3d+BEG33TO151Bbqi69LGF57eVKDbu3zPfc3HV9+n2I5NVO7b171op6Xbo8vQv73rIKdSbGQLtrt3dJndzvv8lz927wdCuuTCx7/5+K4XPOLkdrR39PL8IQcAyFGgAwDgs9eo8WsMUh/rh6yoVrdk3ZT6rdSjoNcp0NWTqbPSygkquGOaTV2YjuZW1xb3Vk1RpxUW8Ua3U3NrZrtcb7WJrtHlmdTVKbp8T5zwMrzTSXNsf8KOpUVMWHzrQaziOlxSRfTv+Ehz7QTiI9NtI9VlhJfbVKB7aSrQ44Rrtafs2HSbuuwAtzXFRrZwu/sPfrFup44UvuCyV7j3BSFtoiPPT5Xnh9dr3f384QYAyFGgAwDgs9fi8esMUh31V1Ysa4kWUVelnsoOCNXpKpe97w+zToGuji3uzURfU/mt08MDV7tSH6alXcKDXWNNa5q3iS3fktrXKdbxiXd6SijQ14/tT9ixtIjRn1HogWw7lZA2atuh6Dzeci36urdDEFtbvM8CXTuB8J08rRnV9G6W7QCFEj0txUa2BXSEsN1efeCjd38QkhK9CWPLtqg8/6HzDn44f5gBAAIU6AAA+Oy1afxag1RHPY+oT7L/Vw+k08JSWyV6an/UtTtSZ2Vlvg7kjI98V/mtOW3W1Ggu+z71Z3Z5WsJFp4dlulZoCK9z3djyLVrD3Tvdi94wEN333ukpoUBfP7Y/YcfSIkbvwIWFsmgDDN+JswepNnpt3F6Rrp1AWMLrHSk7rY8CXTuh8Pq0Adv6TyrRvXWf9Ccr4YcT6vya07s95PQUG9mW2Nk7eLLd5h+78InHP/vEt7r3CyFV0Zsv9hjSmzIceQ4A1SjQAQDw2WuK+PUG8aN+xwpe9Voqk8UKdEV9kfqgsHjW96ljigtur0BXj6auKrVLUhcWrtIwVDSfbuMml2/RfSrqB3X5ul3q1Zquw34OKva901NCgb5+bH/CjqVFjG3E2iloZ+H9WYc2ChXn9q6Z6PzeDkBf04YRvou3iQJdl6cdmS47/CRl7Rj1TpY2Vu0EjXaGYYmuucI/1dHR8ZvciSw9xUa2RXb3Di7a3Tu6Rbf7R+7z6OP7PeYN7n1DSJiLfvVvV2+66HGjD6blA0NPsf3IWMnHcHnnHzL5GC7v/EMmH8PlnX/I5GO4vPMPmXwMJKJA78Z77A2ZfAyXd/4hk4/h8s4/ZPIxXN75h04+Sol33qGTjwJsFXv8x687iB9b3lddkTofr0BX4oMudZS20SoH1ml5BboV9DpfX72SLle9WHi9cdRrVR3k2kc0k/V7ul71bHYgq46ur7sv7H6sOkg2JRTo66d4PmXHkh7jleBV0Uapjdc2EIl3Ql42UaDbO4RG/68/F7ENVDs3K8jtfCradbreIbOvaUfX5hOXyckUG9mWufP+g8/e2Tu8wW7/2Q981qog9e4jst3RXync4+CFWrIl314OT+yce/RT+UMJGduOxko+hss7/5DJx3B55x8y+Rgu7/xDJh/D5Z1/yORjIBEFejfeY2/I5GO4vPMPmXwMl3f+IZOP4fLOP3TyUUq88w6dfBRgq9jjP379QcpR12MHfupAS32tqkAPo97ISnH1V2Eh7RXodhS2qEi2r7eNrkfFvVc8W1lsR3rHpythB1ZXtG8qdl+GM4Wfoaj/j7/HYitIpHSIVaFAXz/F8yk7lvSYNgW6RRuKfWiANgLvPGE2tYSLvl87NW204RHuYXmuefRvu077r9GOpe5dMeKn2Mi2kNat3tk/epXdBypI93/++SzrQoqc/5CXnPqgUGXv6JozzvmFM/OHEHJ2/3j3YZ+x683HcDFbOczWLSmzoYwCvZspP86ZrZwpz6Y0zTfl2YAlG3Pbm1PU89jn49nR5/p6SoFu63NLuJyx4hXoSnjEevw9KdF8dqBn1RrltvqCvRkQJizxdTneeTYZHdQavzmhhPe7VL2hoG6v7vSUUKCvn+L5lB1Lekxdga6iXDueqj8J0bt78Z+9eNlUge7FSnUJN0Qr+MV2Jlay67LDyyDNKTayLaaj0VWM2n1xl/MvWxWnHJG+nbn4SW87vtfDr1ot72OPCX1QqJb+yR8yiNj95N2ffcauNx/DxWzlMFu3pMyGMgr0bqb8OGe2cqY8m9I035RnA5ZszG1vTgk7oLDgTSnQrVPyjqCuKtAVK4VVLKd0Y3HUYdn3e52bVl0QdWrxaeESxUOssmBHmodvTlh0EGu41LKWlglPV6wXbPPBo3Eo0NdP8XzKjiU9pq5At43ZaMfRZafQR4GunUu4swk3UNtBGtt52mXq3TE7L0lLsZHh32hZjp39o2vtPlHOuu9jj887etHxzzz2je79R5aRCx//5uN7Puxlxz9x/6cVP3slezzctLN/cJg/RFDB7i/vvu0zdr35GC5mK4fZuiVlNpRRoHcz5cc5s5Uz5dmUpvmmPBuwZGNue3OJPstP3ZEOnowL3qYC3Xoi8YrougI9XP1AhXZ8elPUa9lR3X//vq+6p5vwKPewSF6nkE7Nc1/z8fza/KPhlXDZZa9kt9PWOaCVAn39FM+n7FjSY+oKdD3g9eAO1zQSLZPSpgzfZIGuebXjso1Plx1eru0cdbq9I2dHpuv22DuL62y025hiI0NBhamOSN/ZP7zN7h/lbve6/PicS69cHZ1+38uvXkVHK3v3K5lu7Gd3wWWvWC3ZozdJwp/zKnuH1/MhoensfvPu7z5j15uP4WK2cpitW1JmQxkFejdTfpwzWzlTnk1pmm/KswFLNua2N7eo0FaZHn6trkDXea3ArlqeuK5AV57x+x9dnS7ekddNUSFtvALf1g4Pr986uiEODtXta7qPLCr51dHFPaO6ONOmF4xDgb5+iudTdizpMXUFehidT+syWQEtKqj1TpR3/jCbKND1vVaIizZg7UDsXS391/5kR+ezeSXcyO1yVbCn3nbCL6117n73R90pL9Nfrg+OtPvKy2nrZJPJ5bTlWJzozZIsV++ee3A5a5y3Z/ejt4/pM3a9+RguZiuH2bolZTaUUaB3M+XHObOVM+XZlKb5pjwbsGRjbntLSFWBrqO7rd9Sv1TVDzUV6IqV3Lo8lfjeeaoSHujpFeIq+cOVIOxocM3cZYWINgnLc/Vs1r/VxTuP7luzznIzFOjrp3g+ZceSHtO2RNbGoHfIwiJdBXndhruJAl3Xq/8X7ZzCubUB2npLOs12WHr3T3SanVexy9HOqe3ObVtTbGRodMY5B+fv7h1ducr+4Vu03MvO3uENdh+SOeTwxOrntvrZHT1fP0uWaFmf3b/ePqbP2PXmY7iYrRxm65aU2VBGgd7NlB/nzFbOlGdTmuab8mzAko257S0hXoGufin84Mu6ZVBSCnR1Uib8bL7UqGOLDxL1ov7Kuri+l24Jy3Nd5zoHoOpNAOOt9Z4aCvT1UzyfsmNJj+m6EWjD1cZtS6XUbeSbKNAVXac2Yvu3NjzNYBt1vKOyP6XR6eHXdZvte1Sur7Mj2JYUGxkAdDTWc3TK/ovZymG2bkmZDWUU6N1M+XHObOVMeTalab4pzwYs2Zjb3hLiFehWikvTMigpBbpin9GnjqmuH/Oi86f0UjZL30u3hOW5/hsvi9M21s2Jd3oc3ddewp+bdzpLNTeneD5lx5Ies255rBK76c9GNlWgW3R92nBsg1aJ7y0lY2tJxQW6Eu4Q9P06b9ud3Dal2MgAoKOxnqNT9l/MVg6zdUvKbCijQO9myo9zZitnyrMpTfNNeTZgycbc9pYQFauiDkn/Vu+j1Qq0jrg6oaYlRVILdHVj+iDQvlY5sKOvNXNfS7dodnsjwIQfXto19jPQwbfe6XG68vpDcnqK51N2LOkZwzoFuv48RcuzhEvHaMehjbtqB2XrUKnA904P3wUTnW+d9ZiWnGIjA4COxnqOTtl/MVs5zNYtKbOhjAK9myk/zpmtnCnPpjTNN+XZgCUbc9tbQuICvW1SC/SmqIhW1It1iS1brJLeOz2OXZc3ixd1cHHftokjutXX2ez63ELvPHF0X3cJR6A3p3g+ZceSHqN3gFRS9xk70jvlA0ctVqDb+uW2nrmJ10GP11HSO3K28eu84Wlh9Kcodr4ua1VtS4qNDAA6Gus5OmX/xWzlMFu3pMyGMgr0bqb8OGe2cqY8m9I035RnA5ZszG1vCVGxKnW9kEVlb3x0tzoz0aoF4dfbxor4Iem2e7OE0UGk4Xrwoo6s7bIt6uR0G8NCWwlLeQru8VM8n7JjSY9p845U11iB3mZjsQI9PHpcG582bG9DtqPJtXOLN36dFp8/jHaSbMj1KTYyAOhorOfolP0Xs5XDbN2SMhvKKNC7mfLjnNnKmfJsStN8U54NWLIxt70lRD2S6OBO7/QwWt7FjpaOrbtagcpl9VvxAad9Rdel2+7NYlEXpiWNQ+rT4gNUU2NvNnhS3sAg/ad4PmXHkhYduW3aHBXeJdogTdPGG8Z2cuKdHkc7unjDV3G/7ruE5GSKjQwAOhrrOTpl/8Vs5TBbt6TMhjIK9G6m/DhntnKmPJvSNN+UZwOWbMxtbwm5+q1fWPVDqR+8qeWDY7oM77xLiN4YsC5Ny8Os89mAYY9nbOllPnNwGimeT9mxpEXvJtm7Uk1HZ48VHRFuM3qne9HGrne89M6Wlnzp+q4ZKafYyACgo7Geo1P2X8xWDrN1S8psKKNA72bKj3NmK2fKsylN8015NmDJxtz2lhAV4uqV1Bd5p8fREi4qgnUwplZsCJcOXmpUom/i4FNdju47RQfrtl0GhvSf4vmUHQsh/aTYyACgo7Geo1P2X8xWDrN1S8psKKNA72bKj3NmK2fKsylN8015NmDJxtz2CCHLSvF8yo6FkH5SbGQA0NFYz9Ep+y9mK4fZuiVlNpRRoHcz5cc5s5Uz5dmUpvmmPBuwZGNue4SQZaV4PmXHQkg/KTYyAOhorOfolP0Xs5XDbN2SMhvKKNC7mfLjnNnKmfJsStN8U54NWLIxtz1CyLJSPJ+yYyGknxQbGQB0NNZzdMr+i9nKYbZuSZkNZRTo3Uz5cc5s5Ux5NqVpvinPBizZmNseIWRZKZ5P2bEQ0k+KjQwAOhrrOTpl/8Vs5TBbt6TMhjIK9G6m/DhntnKmPJvSNN+UZwOWbMxtjxCyrBTPp+xYCOknxUYGAB2N9Rydsv9itnKYrVtSZkMZBXo3U36cM1s5U55NaZpvyrMBS2aPf0II2VRGfVInZMkpNjIA6Gis5+iU/RezlcNs3ZIyG8oo0LuZ8uOc2cqZ8mxK03xTng1YMnv8E0LIpjLqkzohS06xkQFAR2M9R6fsv5itHGbrlpTZUEaB3s2UH+fMVs6UZ1Oa5pvybAAAoIUxn9QJWXL4pRXAusZ6jk7ZfzFbOczWLSmzoYwCvZspP86ZrZwpz6Y0zTfl2QAAQAtjPqkTsuTwSyuAdY31HJ2y/2K2cpitW1JmQxkFejdTfpwzWzlTnk1pmm/KswEAgBbGfFInZMnhl1YA6xrrOTpl/8Vs5TBbt6TMhjIK9G6m/DhntnKmPJvSNN+UZwMAAC2M+aROyJLDL60A1jXWc3TK/ovZymG2bkmZDWUU6N1M+XHObOVMeTalab4pzwYAAFoY80mdkCWHX1oBrGus5+iU/RezlcNs3ZIyG8oo0LuZ8uOc2cqZ8mxK03xTng0AALQw5pM6IUsOv7QCWNdYz9Ep+y9mK4fZuiVlNpRRoHcz5cc5s5Uz5dmUpvmmPBsAAGhhzCd1QpYcfmkFsK6xnqNT9l/MVg6zdUvKbCijQO9myo9zZitnyrMpTfNNeTYAANDCmE/qhCw5/NIKYF1jPUen7L+YrRxm65aU2VBGgd7NlB/nzFbOlGdTmuab8mwAAKCFMZ/UCVly+KUVwLrGeo5O2X8xWznM1i0ps6GMAr2bKT/Oma2cKc+mNM035dkAAEALYz6pE7Lk8EsrgHXZfmSs5GO4vPMPmXwMl3f+IZOP4fLOP2TyMVze+YdMPgYSUaB34z32hkw+hss7/5DJx3B55x8y+Rgu7/xDJx+lxDvv0MlHAQAA67An1rj8I4SsF35pBbAu24+MlXwMl3f+IZOP4fLOP2TyMVze+YdMPobLO/+QycdAIgr0brzH3pDJx3B55x8y+Rgu7/xDJh/D5Z1/6OSjlHjnHTr5KAAAYB32xBqXf4SQ9cIvrQAAoC8U6AAAAMBAKNAJ6ScU6AAAoC8U6AAAAMBAKNAJ6ScU6AAAoC8U6AAAAMBAKNAJ6ScU6AAAoC8U6AAAAMBAKNAJ6ScU6AAAoC8U6AAAAMBAKNAJ6ScU6AAAoC8U6AAAAMBAKNAJ6ScU6AAAoC8U6AAAAMBAKNAJ6ScU6AAAoC8U6AAAAMBAKNAJ6ScU6AAAoC8U6Fvr32b58Q75d1lS6PLj8/6HLHdkuXL1r5NsjjYemOW1WX5x9S/fj2Y5keWVWVJnBgAA6BcFOiH9hAIdAAD0hQJ9a/1yFv1+2TZh+V1FpfhvZVFZfm99IWeldvg1m6NN0a0i/ttZzlj9y6fr+nqWy1b/akcz/VoWincAALBZVvIRQvpJvqkBAABsDAX61lJJ/N4sbY4of2OWlAJddP7nZVGJbkeKxwW6ldypl2lSCvQ7ZbkxS1jWp7CZrNCPj8BvCgAAQDWv8COEbC75pgYAALAxFOhbq48C/c5Z4kL5cVkO8/+/fxYV6Pr32Vk+l0VFdfw93kya9x+yPCiLV6DbUjAWXb4KdLtuS93tVemuma5Z/etUmW5H36ekyxHvAAAAAAAAAKaIAn1rWYF+XpawYK6KCummAl3LtnilcttYgR0KC3+vQNfp3mXFqZrf3iBIeVMhPpIeAAAAAAAAwBJRoG+t1MI5TlOB3nY5lljVZejrb8qiMl8fIqoC3cp/r/Bus4TL3bJcm8VKeX3v72TZy+KhQAcAAAAAAAC2AQX61gqP6G5LR2s/Kkv8vXH57S3p4uWsLEaXER+BbkureIW+4h2xnlqgq4zXMi0fymJHtOu+0drtWv7FQ4EOAAAAAAAAbAMK9K21ToFua4OHZblK9Zdm0ZrmYkuieIV3HJtD36M105+aJRQX1t4SLnEpX7UGusXoOp+ZxS7Lu20xCnQAAAAAAABgG1Cgby0roX86i1cwV0UfBBoud1LFCvSmJV1SinwdlR6eJy7QrfT2ynkvOrrcK79t5qZ5KNABAAAAAACAbUCBvrXaHCEe5x+yNJXHdvnPyeIV8ZYnZKkrrG35lnCZFu8I9Dpa4/wBWepKcbGlW+LbFhf4VqDHR7c3XT4AAAAAAACAOaFAR+Z5Wao+NNPWEtfSLG0K4jYFfdMR3zEr0O+SRUu+PChLnapiPKTzaJaqAj0s8KuOePfWYgcAAAAAAAAwVxToyHgf3GlSl2JJYcWzrZPelQp0Fd3vyf97WRbNGR4NHuYXs6ikPy//d1jW6/t0FLwK8Ndm8ZZm8Qp0lnABAAAAAAAAlo4CfatUlcxWEHun6cM4q5ZiqTpq/M5Z4vMq9sGeKrS908/K0kSXoTXYVXiHR8XrNoRHg9fFynDdH/Z9eoOgqhinQAcAAAAAAAC2EQX6VmlTMqek6qj1rtdTtZSLim778FKdT0eet1kDXUes11221kcXCnQAAAAAAAAAp1CgIxMXxCEVzG2XcKm6PPtAUC25EtMa5FUltwprLf3yoSxahsX7EFGbU+eJi/W6Aj1EgQ4AAAAAAADgFAr0rddUkE+hQBct8WKneQW6WNEeXw4FOgAAAAAAAID2KNC3Xl2pLVMp0ENVBbpYiR5+UCkFOgAAAAAAAID2KNC3norruvXEhyrQn5dlEwW6XJiFI9ABAAAAAAAArIcCfaupWNaHctaV430W6HbZ9iGiz8mSoqlAj6Ue3R4W45pNy8Yodnvs3/pAU53vMPia5awsAAAAAAAAAJaAAn0rqRzWEd8qrZuK5S4Fuo4Af8DJ/z2NdwS6yuiHZmlTPDcV6Hb7Xpvlr7Ok3E4JC3SV7lbst0mbYh8AAAAAAADAlFGgb50HZrGyN6VU7lKgV1FBrfXJq9ZbT5VyBLodXX9Dlj/Kspelib7njiwszQIAAAAAAACAAn1L6ejsX8vSVJ6LjhrXUdxPXf0LAAAAAAAAALYFBToAAAAAAAAAAA4KdAAAAAAAAAAAHBToAAAAAAAAAAA4KNABAAAAAAAAAHBQoAMAAAAAAAAA4KBABwAAAAAAAADAQYEOAAAAAAAAAICDAh0AAAAAAAAAAAcFOgAAAAAAAAAADgp0AAAAAAAAAAAcFOgAAAAAAAAAADgo0AEAAAAAAAAAcFCgAwAAAAAAAADgoEAHAAAAAAAAAMBBgQ4AAAAAAAAAgIMCHQAAAAAAAAAABwU6AAAAAAAAAAAOCnQAAAAAAAAAABwU6AAAAAAAAAAAOCjQAQAAAAAAAABwUKADAAAAAAAAAOCgQAcAAAAAAAAAwEGBDgAAAAAAAACAgwIdAAAAAAAAAAAHBToAAAAAAAAAAA4KdAAAAAAAAAAAHBToAAAAAAAA2Fq7+0fHYycfxeWdf8jkY7i88w+ZfAyXd/4hk4/h8s4/ZPIxkIgCHQAAAAAAAFvLKxiHTj6Kyzv/kMnHcHnnHzL5GC7v/EMmH8PlnX/I5GMgEQU6AAAAAAAAtpaVipdccd3gSSk0x5qP2bpl7rOhjAIdAAAAAAAAW2usMlNJKTTHmo/ZumXus6GMAh0AAAAAAABba6wyU0kpNMeaj9m6Ze6zoYwCHQAAAAAAAFtrrDJTSSk0x5qP2bpl7rOhjAIdAAAAAAAAW2usMlNJKTTHmo/ZumXus6GMAh0AAAAAAABba6wyU0kpNMeaj9m6Ze6zoYwCHQAAAAAAAFtrrDJTSSk0x5qP2bpl7rOhjAIdAAAAAAAAW2usMlNJKTTHmo/ZumXus6GMAh0AAAAAAABba6wyU0kpNMeaj9m6Ze6zoYwCHQAAAAAAAFtrrDJTSSk0x5qP2bpl7rOhjAIdAAAAAAAAW2usMlNJKTTHmo/ZumXus6GMAh0AAAAAAABba6wyU0kpNMeaj9m6Ze6zoYwCHQAAAAAAAFtrrDJTSSk0x5qP2bpl7rOhjAIdAAAAAAAAW2usMlNJKTTHmo/ZumXus6GMAh0AAAAAAABba6wyU0kpNMeaj9m6Ze6zoYwCHQAAAAAAAFtrrDJTSSk0x5qP2bpl7rOhjAIdAAAAAAAAW2usMlNJKTTHmo/ZumXus6GMAh0AAAAAAABba6wyU0kpNMeaj9m6Ze6zoYwCHQAAAAAAAFtrrDJTSSk0x5qP2bpl7rOhjAIdAAAAAAAAW2usMlNJKTTHmo/ZumXus6GMAh0AAAAAAABba6wyU0kpNMeaj9m6Ze6zoYwCHQAAAAAAAFtrrDJTSSk0x5qP2bpl7rOhjAIdAAAAAAAAW2usMlNJKTTHmo/ZumXus6GMAh0AAAAAAABba6wyU0kpNMeaj9m6Ze6zoYwCHQAAAAAAAFtrrDJTSSk0x5qP2bpl7rOhjAIdAAAAAAAAW2usMlNJKTTHmo/ZumXus6GMAh0AAAAAAABba6wyU0kpNMeaj9m6Ze6zoYwCHQAAAAAAAFtrrDJTSSk0x5qP2bpl7rOhjAIdAAAAAAAAW2usMlNJKTTHmo/ZumXus6GMAh0AAAAAAABba6wyU0kpNMeaj9m6Ze6zoYwCHQAAAAAAAFtrrDJTSSk0x5qP2bpl7rOhjAIdAAAAAAAAW8tKxTGTj+Lyzj9k8jFc3vmHTD6Gyzv/kMnHcHnnHzL5GEhEgQ4AAAAAAICt5RWMQycfxeWdf8jkY7i88w+ZfAyXd/4hk4/h8s4/ZPIxkIgCHQAAAAAAAAAABwU6AAAAAAAAAAAOCnQAAAAAAAAAABwU6AAAAAAAAAAAOCjQAQAAAAAAAABwUKADAAAAAAAAAOCgQAcAAAAAAAAAwEGBDgAAAAAAAACAgwIdAAAAAAAAW2t3/+h47OSjuLzzD5l8DJd3/iGTj+Hyzj9k8jFc3vmHTD4GElGgAwAAAAAAYGt5BePQyUdxeecfMvkYLu/8QyYfw+Wdf8jkY7i88w+ZfAwkokAHAAAAAADA1rJS8ZIrrhs8KYXmWPMxW7fMfTaUUaADAAAAAABga41VZiopheZY8zFbt8x9NpRRoAMAAAAAAGBrjVVmKimF5ljzMVu3zH02lFGgAwAAAAAAYGuNVWYqKYXmWPMxW7fMfTaUUaADAAAAAABga41VZiopheZY8zFbt8x9NpRRoAMAAAAAAGBrjVVmKimF5ljzMVu3zH02lFGgAwAAAAAAYGuNVWYqKYXmWPMxW7fMfTaUUaADAAAAAABga41VZiopheZY8zFbt8x9NpRRoAMAAAAAAGBrjVVmKimF5ljzMVu3zH02lFGgAwAAAAAAYGuNVWYqKYXmWPMxW7fMfTaUUaADAAAAAABga41VZiopheZY8zFbt8x9NpRRoAMAAAAAAGBrjVVmKimF5ljzMVu3zH02lFGgAwAAAAAAYGuNVWYqKYXmWPMxW7fMfTaUUaADAAAAAABga41VZiopheZY8zFbt8x9NpRRoAMAAAAAAGBrjVVmKimF5ljzMVu3zH02lFGgAwAAAAAAYGuNVWYqKYXmWPMxW7dMfbaz/89n6f+vJem5+Irrrs/+S4EOAAAAAACA7TNWmanYdeejuMaaj9m6Zeqz3e3/uPz44qe+/SLSLpc85e0/lf/4AAAAAAAAgO0xVpmp2HXno7jGmo/ZumXuswEAAAAAAABAYawyU0kpNMeaj9m6Ze6zAQAAAAAAAEBhrDJTSSk0x5qP2bpl7rMBAAAAAAAAQGGsMlNJKTTHmo/ZumXuswEAAAAAAABAYawyU0kpNMeaj9m6Ze6zAQAAAAAAAEBhrDJTSSk0x5qP2bpl7rMBAAAAAAAAQGGsMlNJKTTHmo/ZumXuswEAAAAAAABAYawyU0kpNMeaj9m6Ze6zAQAAAAAAAEBhrDJTSSk0x5qP2bpl7rMBAAAAAAAAQGGsMlNJKTTHmo/ZumXuswEAAAAAAABAYawyU0kpNMeaj9m6Ze6zAQAAAAAAAEBhrDJTSSk0x5qP2bpl7rMBAAAAAAAAQGGsMlNJKTTHmo/ZumXuswEAAAAAAABAwUrFMZOP4vLOP2TyMVze+YdMPobLO/+QycdweecfMvkYAAAAAAAAAFDPKxiHTj6Kyzv/kMnHcHnnHzL5GC7v/EMmH8PlnX/I5GMAAAAAAAAAAAAAAAAAAAAAAAAAAAAAAAAAAAAAAAAAAAAAAAAAAAAAAAAAAAAAAAAAAAAAAAAAAAAAAAAAAAAAAAAAAAAAAAAAAAAAAAAAAAAAAAAAWIzd/aPjsZOP4vLOP2TyMVze+YdMPobLO/+QycdweecfMvkYAAAAAAAAAFDPKxiHTj6Kyzv/kMnHcHnnHzL5GC7v/EMmH8PlnX/I5GMAAAAAAAAAQD0rFS+54rrBk1JojjUfs3XL3GcDAAAAAAAAgMJYZaaSUmiONR+zdcvcZwMAAAAAAACAwlhlppJSaI41H7N1y9xnAwAAAAAAAIDCWGWmklJojjUfs3XL3GcDAAAAAAAAgMJYZaaSUmiONR+zdcvcZwMAAAAAAACAwlhlppJSaI41H7N1y9xnAwAAAAAAAIDCWGWmklJojjUfs3XL3GcDAAAAAAAAgMJYZaaSUmiONR+zdcvcZwMAAAAAAACAwlhlppJSaI41H7N1y9xnAwAAAAAAAIDCWGWmklJojjUfs3XL3GcDAAAAAAAAgMJYZaaSUmiONR+zdcvcZwMAAAAAAACAwlhlppJSaI41H7N1y9xnAwAAAAAAAIDCWGWmklJojjUfs3XL3GcDAAAAAAAAgMJYZaaSUmiONR+zdcvcZwMAAAAAAACAwlhlppJSaI41H7N1y9xnAwAAAAAAAIDCWGWmklJojjUfs3XL3GcDAAAAAAAAgMJYZaaSUmiONR+zdcvcZwMAAAAAAACAwlhlppJSaI41H7N1y9xnAwAAAAAAAIDCWGWmklJojjUfs3XL3GcDAAAAAAAAgMJYZaaSUmiONR+zdcvcZwMAAAAAAACAwlhlppJSaI41H7N1y9xnAwAAAAAAAIDCWGWmklJojjUfs3XL3GcDAAAAAAAAgMJYZaaSUmiONR+zdcvcZwMAAAAAAACAwlhlppJSaI41H7N1y9xnAwAAAAAAAIDCWGWmklJojjUfs3XL3GcDAAAAAAAAgMJYZaaSUmiONR+zdcvcZwMAAAAAAACAwlhlppJSaI41H7N1y9xnAwAAAAAAAIDCWGWmklJojjUfs3XL3GcDAAAAAAAAgMJYZaaSUmiONR+zdcvcZwMAAAAAAACAwlhlppJSaI41H7N1y9xnAwAAAAAAAICClYpjJh/F5Z1/yORjuLzzD5l8DJd3/iGTj+Hyzj9k8jEAAAAAAAAAoJ5XMA6dfBSXd/4hk4/h8s4/ZPIxXN75h0w+hss7/5DJxwAAAAAAAAAAAAAAAAAAAAAAAAAAAAAAAAAAAAAAAAAAAAAAAAAAAAAAAAAAAAAAAAAAAAAAAAAAAAAAAAAAAAAAAAAAAAAAAAAAAAAAAAAAAAAAAACA6Xpgltdm+cXVv3w/muVElldm+Xf6woT9eE3Wmf1OWT6X5e+yTP0+AAAAAAAAAABswH/I8u0sZ6z+5VOB/vUsl63+1c4vZ/m1LEOUzrotxzW5JktX/zbLG7NcufoXAAAAAAAAAGDxUgp0HX19Y5Z7r/6Vzop3O3LdOyq8LrE7Z6k7T91t+a0sdeW3CvL4ssOcnUUF+nOCr3n5T1n2sgAAAAAAAAAAZkhHhf9Dlgdl8UrnuExWeawC/TD4mlJ3VLkteWJHfVuZ7h0ZXpXwiHc7ArzuPOsU6Do9vuyu4Sh1AAAAAAAAAJgpFejvzaIC3CuddbpXDMepKoqt7LbrqGPrqzcd3R4voWIFfVyge3NaWMIFAAAAAAAAAFBLR1u/KYuOIteHiKpAPy//t1d4t1nC5W5Zrs1ipby+93eyVC1rsskCfROq7oOmAl2nn3XyfwEAAAAAAAAAc2TFs3eEtuIdpZ1aoKuM1zItH8piR7TraPY7smj5F8+mCvS49NZ66eF/Q1VFd5dlZsJULR8DAAAAAAAAAJiBuLD2lnCxNc4tVWugW4xK7mdmscuyQrpu2ZNNFOje0i12m7y1zddZygUAAAAAAAAAsFAqlMO1yeMCve1R2Dq63Cu/rfBuWgd9UwV6eD26zM9nsQI9LPB1RHxTgR6+KZBK31N3OwEAAAAAAAAAE2alc1gge0eg19Ea5w/I0lQW29ItcTEeF/hWoMdHt8eXP1SB3vYNhDDh9QAAAAAAAAAAZs4K9LtkeVyWB2WpU1WMh3QeFcpVBXpYYFcV1nHJPdQSLlbox3PH1x+y02w9dgAAAAAAAADAAqh8VtH9nvy/KoFVCIdHg4f5xSw62vu8/N/hkeL6vidkUUn92ixeEe0V6Osu4eLRkfK/l6Xqw0ur6HK9D0ylQAcAAAAAAACALaIPB702iwrvV2axMtw7arsqVoarRLbvU8lcVYz3UaDfOUtc9O9n0eWq8I9PU+IlYgwFOgAAAAAAAABsKZW9989ixbmOPG+zBnq83nhIl6310aWvAv05WVSAq/xXga6CXF8PS/2UVC3jQoEOAAAAAAAAAFtKhbXWHP9QFi3DYmughwW6FcI6T1ys1xXoob4K9LgI90rrcE30Nm8OiN0/4XWkhgIdAAAAAAAAAGYuXMLEK9DFiuS4LB+7QPeWcAlpPs39S1l0JPk7suj27WVJoe9v+pDUmGZ5fZanrv4FAAAAAAAAAFiEqgJdrETX+uhmKgW6aO3zcI5fzmIfhBouxfK8LPq6lntpostoe9Q6AAAAAAAAAGCB6gp0uTDLFI5Ar3O3LC/NEh45Hq9lrmJcy6z8UZa6o9Hj+QAAAAAAAAAAW6qpQI+piG5boOvocS0bo1hBbf/WB5rqfIfB1yxnZamzn+Wvs1gxHs7kfRioinb78FQdVR/fBs2sI+5ZyxwAAAAAAAAA0Figq/zWEiivzWJlddsC3Y7+bpumYl+z/X9ZVL7HvAJd9D3/KUs8vy0Rk3LbAAAAAAAAAABbIOUIdJ1HhfYNWZqWQDH6nrYfxrlJbZaGUXmuI+N1Gzn6HAAAAAAAAACAnD6MVEfZhx9QCgAAAAAAAAAAAAAAAAAAAAAAAAAAAAAAAAAAAAAAAAAAAAAAAAAAAAAAAAAAAAAAAAAAAAAAAAAAAAAAAAAAAAAAAAAAAAAAAAAAAAAAAAAAAAAAAAAAAAAAAAAAAAAAAAAAAAAAAAAAAAAAAAAAAAAAAAAAAAAAAAAAAAAAAAAAAAAAAAAAAAAAAAAAAAAAAAAAAAAAAAAAAAAAAAAAAAAAAAAAAAAAAAAAAAAAAAAAAAAAAAAAAAAAAAAAAAAAAAAAAAAAAAAAAAAAAAAAAAAAAAAAAAAAAAAAAAAAAAAAAAAAAAAAAAD4/9u7/2BZyvrO4/6xf1j7j/7DOailECuxqHsO3utSaIgrQdGS2pg656BSLJpI1qIwpuSX60Y3WlKJihWNiBVXkuCPxCSXUiMb/JWYQkLARUVBRQERA4p6NUIQkACJOjufvv1tnvv0t7uf7pmenunzflV9Cu6Znpln5kz3Of2Z5zwDAAAAAAAAAAAAAAAAAAAAAAAAAAAAAAAAAAAAAAAAAAAAAAAAAAAAAAAAAAAAAAAAAAAAAAAAAAAAAAAAAAAAAAAAAAAAAAAAAAAAAAAAAAAAAAAAAAAAAAAAAAAAAAAAAAAAAAAAAAAAAAAAAAAAAAAAAAAAAAAAAAAAAAAAAAAAAAAAAAAAAAAAAAAAAAAAAAAAAAAAAAAAAAAAAAAAAAAAAAAAAAAAAAAAAAAAAAAAAAAAAAAAAAAAAAAAAAAAAAAAAAAAAAAAAAAAAAAAAAAAAAAAAAAAAAAAAAAAAAAAAAAAAAAAAAAAAAAAAAAAAAAAAAAAAAAAAAAAAAAAAAAAAAAAAAAAAAAAAAAAAAAAAAAAAAAAAAAAAAAAAAAAAAAAAAAAAAAAAAAAAAAAAAAAAAAAAAAAAAAAAAAAAAAAAAAAAAAAAAAAAAAAAAAAAKvuP03zix3yn6dJoduPt/2v0zw8zfnZvw6ycbTx/Gn+eprfyP7l+4VpDkzz3mlSxwwAAAAAAAAAwKP+xzSTDgnL7yoqxf9oGpXlT9cXclZqh1+zcbQpulXE/2Saw7J/+XRf/zrNqdm/2tGYfncaincAAAAAAAAA2IVUEn9pmjYzyi+fJqVAF23/lmlUottM8bhAt5I79TZNSoH+6GlunSYs61PYmKzQj2fgNwUAAAAAAAAAsOL6KNAfN01cKL9imu38/58zjQp0/fuoab49jYrq+DremDTef5zmBdN4BbotBWPR7atAt/u21D1ele4a02XZvx4p0+NZ+HXpMuMdAAAAAAAAALBErEDfO01YMFdFhXRTga5lW7xSuW2swA6Fhb9XoOty77biVI3f3iBIeVMhnkkPAAAAAAAAABiR1MI5TlOB3nY5lljVbejrH5tGZb4+RFQFupX/XuHdZgmXJ05z5TRWyuu6fzzNxjQeCnQAAAAAAAAAGLFwRndbmq39smni68blt7eki5cjpzG6jXgGui2t4hX6ijdjPbVAVxmvZVq+Oo3NaNdzo7XbtfyLhwIdAAAAAAAAAEZslgLd1gYPy3KV6u+aRmuaiy2J4hXecWwcuo7WTH/1NKG4sPaWcIlL+ao10C1G9/n6aey2vMcWo0AHAAAAAAAAgBGzEvpXpvEK5qrog0DD5U6qWIHetKRLSpGvWenhNnGBbqW3V8570exyr/y2MTeNhwIdAAAAAAAAAEaszQzxOP84TVN5bLf/pmm8It7yqmnqCmtbviVcpsWbgV5Ha5w/b5q6Ulxs6Zb4scUFvhXo8ez2ptsHAAAAAAAAAKyYt0xT9aGZtpa4lmZpUxC3KeibZnzHrEB//DRa8uUF09SpKsZD2kZjqSrQwwK/asa7txY7AAAAAAAAAGCFeR/caVKXYklhxbOtk96VCnQV3V/M/3vqNBpnOBs8zG9Mo5J+b/7vsKzX9TQLXgX4X0/jLc3iFegs4QIAAAAAAAAAI1JVMltB7F2mD+OsWoqlatb446aJt1Xsgz1VaHuXHzlNE92G1mBX4R3OitdjCGeD18XKcD0fdj29QVBVjFOgAwAAAAAAAMDItSmZU1I1a73r/VQt5aKi2z68VNtp5nmbNdA1Y73utrU+ulCgAwAAAAAAAAAOERfEIRXMbZdwqbo9+0BQLbkS0xrkVSW3Cmst/fLVabQMi/chojZObRMX63UFeogCHQAAAAAAAABQaCrIl6FAFy3xYpd5BbpY0R7fDgU6AAAAAAAAAKC1ulJblqVAD1UV6GIlevhBpRToAAAAAAAAAIDWVFzXrSe+qAL9LdPMo0CX46dhBjoAAAAAAAAAoDMVy/pQzrpyvM8C3W7bPkT0TdOkaCrQY6mz28NiXGPTsjGKPR77tz7QVNttB1+zHDkNAAAAAKBv65s7E0JIf8l3NQDYjVQOa8a3joVNxXKXAl0zwJ938H8P4c1AVxn9omnaFM9NBbo9vr+e5u+mSXmcEhboKt2t2G+TNsU+AAAAAKArr/AjhMwv+a4GALvN86exsjelVO5SoFdRQa31yavWW0+VMgPdZtffPM1fTLMxTRNd5+FpWJoFAAAAAJadlXzPPe8aQsgcQ4EOANns7N+dpqk8F80a1yzuV2f/AgAAAABgGVCgE9JPKNABAAAAAACAFUeBTkg/oUAHAAAAAAAAVhwFOiH9hAIdAAAAAAAAWHEU6IT0Ewp0AAAAAAAAYMVRoBPSTyjQAQAAAAAAgBVHgU5IP6FABwAAAAAAAFYcBToh/YQCHQAAAAAAAFhxFOiE9BMKdAAAAAAAAGDFUaAT0k8o0AEAAAAAAIAVR4FOSD+hQAcwKzuODJV8GC5v+0UmH4bL236RyYfh8rZfZPJhuLztF5l8GAAAAACwXOykxSsACSHdQyEAYFZ2HBkq+TBc3vaLTD4Ml7f9IpMPw+Vtv8jkw3B52y8y+TAAAAAAYLnYSYtXABJCuodCAMCshvoZnXL8YmzlMLZuSRkbAAAAAAxmqJMlQsYeCgEAsxrqZ3TK8YuxlcPYuiVlbAAAAAAwmKFOlggZeygEAMxqqJ/RKccvxlYOY+uWlLEBAAAAwGCGOlkiZOyhEAAwq6F+RqccvxhbOYytW1LGBgAAAACDGepkiZCxh0IAwKyG+hmdcvxibOUwtm5JGRsAAAAADGaokyVCxh4KAQCzGupndMrxi7GVw9i6JWVsAAAAADCYoU6WCBl7KAQAzGqon9Epxy/GVg5j65aUsQEAAADAYIY6WSJk7KEQADCroX5Gpxy/GFs5jK1bUsYGAAAAAIMZ6mSJkLGHQgDArIb6GZ1y/GJs5TC2bkkZGwAAAAAMZqiTJULGHgoBALMa6md0yvGLsZXD2LolZWwAAAAAMJihTpYIGXsoBADMaqif0SnHL8ZWDmPrlpSxAQAApLLfLQghZF4Z7GSJkLGn2MkAoKOhfkanHL8YWzmMrVtSxgYAAJDKfrcghJB5ZbCTJULGnmInA4COhvoZnXL8YmzlMLZuSRkbAABAqqF+pyGEjC/FuQoHFkL6SbGTAUBHQ/2MTjl+MbZyGFu3pIwNAAAg1VC/0xBCxpfiXIUDCyH9pNjJAKCjoX5Gpxy/GFs5jK1bUsYGAACQaqjfaQgh40txrsKBhZB+UuxkANDRUD+jU45fjK0cxtYtKWMDAABINdTvNISQ8aU4V+HAQkg/KXYyAOhoqJ/RKccvxlYOY+uWlLEBAACkGup3GkLI+FKcq3BgIaSfFDsZAHQ01M/olOMXYyuHsXVLytgAAABSDfU7DSFkfCnOVTiwENJPip0MADoa6md0yvGLsZXD2LolZWwAAACphvqdhvSb//a//t9k+/c+515GSF8pzlU4sBDST4qdDAA6GupndMrxi7GVw9i6JWVsAAAAqYb6nWas+dhnD0zu/7f/mHzm+h+5ly8qL3nTdRPz91/4obvNvPOFm/918hd//53J//m//5xU3v/WW780OfOPbnAvu+Tjd2S39Yf7b80ei7dNSv7mqu9l3wvdVpfbMV++7ceTV130FXcb8kiKcxUOLIT0k2InA4COhvoZnXL8YmzlMLZuSRkbAABAqqF+p1nFaFb3NTfelZW6+n9vG5XH8vB//Kxym3lF4/C+rqjANm/+4C3uNoqKYZXM3mVt84O7H8ruT7fpXR5HbzaY1/3p1w+5TLchus1ZZtLb7ej7ocLe26YuJvUx7fYU5yocWAjpJ8VOBgAdDfUzOuX4xdjKYWzdkjI2AACAVEP9TrOKURFtVOx6BbnKXpW1UldwzxrNKpe62eXm1e++0b1cs7KNCuJZC//v/PDfsttKfdx2/zfdcV/pMnt8Ktnjy9pEs+Kl618E6K8JRG+MeJeTQ1Ocq3BgIaSfFDsZAHQ01M/olOMXYyuHsXVLytgAAABSDfU7zSrGZjPffd/DlUuPKDazus9Zy+Hs7aoS3XhjValuVPirzJ51zXR7ft74vpvdy+NYge6V21aga5v4sjax2+k6y95m1ccz5Imf4lyFAwsh/aTYyQCgo6F+RqccvxhbOYytW1LGBgAAkGqo32lWLeGa4k2zkVVYm1nW726Kza6W/VfcWbrcxGPQWt42s1oF8bzGaAV6PONdxbyK8Di2/W3f/UnpMn1NtE18mSVl3LMW8VagV83iJ4emOFfhwEJIPyl2MiQ5bM/WvvWNrRPWj946fX1j5/z1zZMvXNvcuVKx55IsYTa2r82+Rxs779H3bW1j65zs+zhN/q3FDOx59o4xfcbuNx+Gi7GVw9i6JWVsAAAAqYb6nWbVooJaNPs8ZakTLUsiVbPD5xEV01Y0yzs/ctshl5uwaNZMaltiZp7luVJVoOs++pBSalOgLzbFuQoHFkL6SbGTodJhe3ZOUvG6trlzuz1fZETZ2LlnbXN7//S/px5xxMsenX/b0YI9l94xps/Y/ebDcDG2chhbt6SMDQAAINVQv9OsUlRUqziX1LWww1nofS7/oXLaxibh8inGSnKtTW40A71uGZouqSrQT3njF7LLtFRLOIO86wx0LV+jr6eMnwJ9sSnOVTiwENJPip0MBZWoKlPXNnfer3LVniPliceePnny8WdN9px0/uSpW2+b7HvhRZPjTt+f5cSzr3KfYzJ87Hv0tFPenX3fNn/9guz7eORxZxbf2yIbO5etbW6/4rA9Lz48f0mggT133nPfZ+x+82G4GFs5jK1bUsYGAACQaqjfaVYpWj9b9CGZbT5o066ngnvW9cXroiJZs8pVOv/WW79UfN2oQFeJHS7bMu/yXKkq0KuiUlu0FE18mcp2mfVDRJsKdD0PGrfuxwr6MPac6Xa8y9uU+bshxbkKBxZC+kmxkyGj4nR9c/uAPS/Kk57x8qxwfeYZH3WfQ7LaOf6Vn8jeCFGhHn7fp6+FB9c3ds5/zN6tx+YvD1Sw58x7fvuM3W8+DBdjK4exdUvK2AAAAFIN9TvNqkTFqEn9cEyLynabHd7nUi6K1jWPy31jM9D1XxXT9u+u0f2oJFfC+4wLdI1J/6/y3rYJYx+EquI/vsxua9bnralA1/jmwR7zbk9xrsKBhZB+Uuxku1w+47xYokWluUpVlave80bGmWefdcXkmFMvnvziCecW+4b+CkFrprO8SzV7rrzntM/Y/ebDcDG2chhbt6SMDQAAINVQv9OsSsKlRLzLm6LS3XRZysVmSGs2ezz7uSmmy3V1n1ryxRuTCvg2wttR0TxL2s70birQ9VjsMV/y8TtK9xcu3RNf9uYP3pJdJuHM/92c4lyFAwsh/aTYyXaptc2t7enjv8GeBy3Rcuxpl7jPFdld0ZIv4az07A2Wo7dOz186CNhz5D2PfcbuNx+Gi7GVw9i6JWVsAAAAqYb6nWYVotJUtDzKLLO2r7nxruJ22pboKmqHUlc6h/Qmg5a3MfamgwkLdFsSpau6NzKs1A5Lbi0PIyrSw6/r+5DyFwV1a6CHz8Msr48xpThX4cBCSD8pdrJdaH1j5z32+J9wzEuyGefec0R2d57+0g9kf5FgrxWtkc6yLoey58Z7/vqM3W8+DBdjK4exdUvK2AAAAFIN9TvNsiecOf7Oj9zmbpMaLXNipXLbEl0zrlX+2izpuuy/4k63oO4yA13XqZqB7kXXMV7ZbLFCWs+HyvDU2PXqlnQJx5Ci7rYsFOjtUpyrcGAhpJ8UO9kuovJzbXPnSj3uw5/6ouxDJfkAUNIULe3y+H2nZvvL2sb2zet7t47MX1K7nh1Hhko+DJe3/SKTD8Plbb/I5MNwedsvMvkwXN72i0w+DAAAgJnY7xbeucdujQpuFd3ifcBll6hgtTK2y0z0puj2b7rjvuz2xT7AVFRAqwyP10ifZ8IZ6HUFusbStI0XK8f1uLzLFW2jJVfC4t2WYNFzH35d46VAn3+KcxUOLIT0k2In2yUet3nyUVn5OX3MKkO1TIf3vBDi5VlnXv7IbPSN7R+vb2ydkL+0djU7jgyVfBgub/tFJh+Gy9t+kcmH4fK2X2TyYbi87ReZfBgAAAAzsd8tvPOO3RjN+LbyXLOkt3/vc+52XRLetv6rGePzKLVV7trMc/3XliaJ6TJ9cOe81+sOi2Spe95UXkvXAl3/9S6vikryLtezUKC3S3GuwoGFkH5S7GS7gMrOrPScPl6VoHxAKOkSfdBo+CGj+oDR/CUGAAAAAEnsfMI759ht0SxtK6JVnKoU1X/jWc1tY7OzVeKGs9tFl73qoq+442nKKW/8wuQz1/8ov6VJNgM9LHKNPhzTimCjmfUpa4CnRLcfU4nulcp6PiR1WRqLXU//H99mXSjQFxs7nnBgIaSnFDvZyB22Z+cke6wqP1WCes8HIanZ+LU3FfvP+ub2a/OXGgAAAAA0snMJ71xjt0Szpa1oFZXomi2uy+LieRb6UFLdpgpzW1rEaGmS1NnuKs5VCIez2VVix9sZm3GuwtyKaKPHpzXeZ5kJHy7fIjYu3XZcLMf339aiC3RDgZ4WO55wYCGkpxQ72Yhp2RabeX7U89/gPg+EdInWRbd9aG1zazt/yQEAAABALTuP8M4zdkPiMlv/b+W5Xa7yVLGCW7PITUpxat78wVuKr+l69sGiovv1SlqLCm5d/5ob78qvcZBmnVctyWLi29VjCmeui940UMncdska+7BVleZWpHsz+W17K9D1ZoI9rynpWoTPq0D3nmMK9HLseEKBTkhPKXaykco/MPR2PUbNPPeeg3nlpNd8dvLb7/hy6es64OuHoS5P+aHo3cY/fPGHk/d+ovzO9vs+ecfk4stvr7zdP/+7b09uP/DA5LQ/8H+ovP6SmyY3fPPH2Q9G7/IXvPbayV33Ppzdf+oPdD3Or91+X7bGW924fvqzn09e/96b3Mu96HnRY6ka61DZu/OObB9a29x+8LA9W/vylx4AAAAAVLJzce8cYzdE58n24ZsqgFOKUM3YNt7lcUx8DqlSXIW4llPxzll1udZJD4t2o2JaRXV8HYtuz1Qt1aLHHs8IV/EdFv1N0dhFM+jttvQ4wzcZNFZ7fOE28W3VRQW4zLNA1/Onr+v7qfF4MXpO4sv0NaP/1+3o9ua1NM4qxo4nFOiE9JRiJxuhI4542aPXNneu1OPTmud9L9uiUthjRXH8TnOVA3c/WPoh/vZLv5lddvHfHvzTM4tu81Of/0Hx7zd/8BuTt116a3F9jenGf763uDyOrq/70w8h73L9AGpbdKtAv/nb95fGGka36z3Oqtht6jr6szn9f6rw+ekrv/Sc12T7kd6sOWzPiw/PX4IAAAAA4LJzce/8YjdF5WfqeaFKbVEx7F0ex1Sd79YlXjNdM9U1e7tpyZVwdnRd0a6o/LVZ+CrQda7rbRdHM9lF49N14nLc1kYPy+tZC3QV9d7lVakr0OM3D+ZF9xnf126JHU84sBDSU4qdbITWN3beo8f2+H2nDvKBoVb6VhW4Krf1A69qdngcm7UdFtNxga5/h4V5XYGuGd0PPPjT2nI8vr26vPWvbp289k++1kuBnvJcaZs2tznPnHj2VZMjjzvz4P60sX2t3rzJX4YAAAAAUGLn4t75BfGj81NRAetdHmYey3yoiNYs9KYiPIwK6jb3p/NXvTHQZva0zYzXLHr92yvH49uzZV50XW2fGr1ZIW3L6boC3WbN6/upy+PY91n0VwreNmG0vW7PW49+t8SOJxxYCOkpxU42MlqPWo/r8Ke+aHLc6fvdx95Xzn7XwU/ybip0dZBvOztaS6lcd8s9xb/j24j/XVegx9ta8Z0iLrPturovmyEeFugaR5Oqceq6KbPghyzQFb1J84RjXpLtT2sbOxfkL0UAAAAAKLFzce/cgvhRSSpaLtS7PMw8CvQuCaXOKG8TzYI3tma8PS91s8ttbfSudB/e7ValrkBviq5jVPh725BDY8cTDiyE9JRiJxuZ6WO6QY9L61N7j7uvaFb3Qw//bPLVb93rzu629dBtbfHwcpXQbcvfrgW63o0OS3Ar5sP7j7epSzjrfF4z0HU7ekc9LM/Pm/5CUHWdoQt05ekv/UC2Px1cD52lXAAAAAD47FzcO68gfmw2dMpM47BA76PI9qL7MW2XPEmJ+gQrwm32uZJSoOsyJX4utFSNxqrlZLw3GvQ1XS/8gNeUzFKgx2vPa8kabzvySOx4woGl52hnU/QCr9vhdktSD67aTgeaIQu7WVPsZCOyfvTW6XpMmg2spTW8x91nrET3ylwV3HVSl0uxdCnQVd7/+P5/LwpuG294PSW+rbrYbXi856GpQFd5/uErv3tIeW7jrrreMhToiq2Hvr558oX5S3L07DgyVPJhuLztF5l8GC5v+0UmH4bL236RyYfh8rZfZPJhAAAAzMR+t/DOKUg5Ko+NSl9vmzDqtox3eV1UGqv41XmrFc8pCT/csu4DMpuiJWN03+GYdJ5rbyBooltYaKcU6FUJZ3unPK+pqSrQ9Tj0BkhV7xa+CdF1+ZjdmOJchQNL9+jFqXem6v5kxT69VzuhDkrx5dox9cEGeuGnlsurHK2xpPWhdMCr+4AIPa+i50YHSm+bZU+xk42E1p5e39w+oMe074UXuY95EelSSseX2UzuUDyru0uBrm1i8TYaf9P66GHCQtybgR6X2ikz0OM0FeTLUqA/84yPZvuUZqE/bvPko/KX5qjZcWSo5MNwedsvMvkwXN72i0w+DJe3/SKTD8Plbb/I5MMAAACYif1u4Z1TkHI0eVFSP0BUZbLxLq9LeN2hxKWxym2bfR7Pbp+lQLfnVT2Yd3nXxAW6xqald9Q7SlW3qDcPRD2bukjRdYY+z1/2FOcqy3xg6XvH6rIDhNFOIPbi87axF7aKdO9yK9hFt1NXxntRCd32zz1mjXbGtuNUdJ1Q/K6fxXZk0XO86Mc3rxQ72UisbWydo8ejD3T0Hm+fsbXPLeGbUSqVVUqHBffrL7lp8vnpvmUldVx+h/FKaaVLga5x2Vj1+g6XafHKdakal2Jjs/uJx2ozx1PFj1GxNyTCy3Q/4TbLUqArT3nu6w7uWxs7l+UvzVGz44j3XPQZu998GC7GVg5j65aUsQEAAKQa6neaVYw6JSteUz8o0ro6lc7e5XVRv2MrNbSJ+jLRf228+q+3bVO8x6lzXW9iq7aXsD8MZ5bPWzyr3Iv1jJqcas9LyLuOYh2m3YdNXGUWen2Kc5VlPrDEheu8zVrM6vr2Zw86cHiFvL2wvRekCjajIr3LDPS+n6MqXT6BV9cxdde3NxW0NlPdLPVlT7GTjUA2+3xj5wd6PFqL2nu8faVuCROjgjksuL3yehEFuiVeyqXq63XjUvTYv/W9nxTbV421a2w88Rg0rrAw12ONDVWon/A7n84+wFavxcP2bO3LX6KjZccR77noM3a/+TBcjK0cxtYtKWMDAABINdTvNKsY++BMnT+ndlI2kzl1xvqs0bisNNd47f5F//auM68sS4Gu+9dl6svsuQipTNeM96qlYsI+zr7PWv/crOrKD4tIca6yzAeWsBz2Lu+S8Db1/942baIXni3Crxdx/KKzAj3eCVQ8WfleNTs9JbqdIeiA5Y2nLvZulx53VTHe9kCkg8SyluzFTjYCtvb5ELPP44RLlOj/bS3vsIweukCvuj99PbxO3bi82Fjf+4k7snXM665r5XjVGO22JL6d+LEt0wx0ZePX3pTtW2ubO+/PX6KjZccR73noM3a/+TBcjK0cxtYtKWMDAABINdTvNKsWdSnqVCT84MymWIE976VJqqLlSUQTV63/sa9Jl34qNV6Bri5R/677AE5bvkUzxG2WeN1EUk3Q1W2GPaX+33o0j8am5ZGbuk39pbyV7vESNdZZ6rntMql3N6Q4V1nmA4teBMa7vEvC25xX8apSyQ46KsTCy6oKdPtTCV1v1lLKNO002rn17lzTdnWx0r/tByCEz3vVO4ThjPwUOgB468ovS4qdbATWNrf367E87ZR3u491kbECXQd3FcBW/oZl9JAFuu779gMPZPu1Xp+XXnHn5LKrv580k17CcccJS+9/ueehQ36Ix1GBfte9D7trrZ/xtuuzMep5vPbrd5eem2Uv0J915uX5/rV9IH+JjpYdR7znoc/Y/ebDcDG2chhbt6SMDQAAINVQv9OsWqyXkroyOI5NfJxlMmhqwlnSYfmrPs/KZZ1D6zw8vN684hXoTVEZboW1+i/rutp2WHqM8RItmsCr0rxN2W3Pk7fKg/5tPZ8e67Kc8y9TinOVZT6w9F2ge5dXRTttXeGu29U7YPE2XoGuHUj0Dk/dzqPbSllmxjQV4zZTXrr+eYbtWG0OHoq9+6YDhvc86vnV8yE6GMSXW3SZ6fNdxnmk2MlWnJZv0Yc26rFo+QzvsS4yVqDrwK5C2Q7w8yzQ7WttC/S3X/rN/NX5CL1J9s4P+6/punHF0W3b/hePK4WNVY9NvyipgNfz441h2Qt05YnHnp7tX2tH7/xy/lIdJTuOeM9Bn7H7zYfhYmzlMLZuSRkbAABAqqF+p1mlhDO42y6DYueg8WzmeUfn9dYT6Vw4Lo3VgYU91/4r7qzt7bqkbYGuc2Ybk8Zs47GlilVmtzmv1vdGz4E6xabOL47ux+63rrwP36TQ2Nvez9hTnKss84FF3zTjXd4l4W22eccm3CkXKeUdPVP3Ig+L53g2fJt0KdD1PNu7b94BVmW+XV43Nj0+285bU37ZUuxkK25tc2tbj+MXnvlK93EuOmGBHn49LILjwreuqI4L9Dd/8BuT//7715XWMI9vwyvQNcv81jvvn3zoyu9m/x9eZnnrX91a7D92mxrDZ67/F/cHqYpzzVzXUjWf/NwPspnj8Wx5XT++bt0M9DDec7MKBbot47K+sXN+/lIdJTuOeM9Bn7H7zYfhYmzlMLZuSRkbAABAqqF+p1mV2Axy0fmgt01VdE5ovUyfkxrDMaqHquq7NB4riUUT2Oa5UkGbAl1jtO5QpXc4IVaXWZ+mMdb1d2FUwHd5UyD8zEZpmkRry/KIZr2nTObdLSnOVZb5wKIXVJ/a7FThDrlIKUWxqTug2J992DtXKfFuq0uBHs4+j9+00DuEpumx2oFLB5t5v6vYR4qdbMVpnWk9jr0773Af56KTUqDr/8MC2CuJLWGBrtL7gQd/Ovmzj9+R/Tcsn+Pb8Ar0ptgyLuE49f9VH+ap6DKV69rn4rJfsa/FS7qMvUA/7vT92f61trF9c/5SHSU7jnjPQZ+x+82H4WJs5TC2bkkZGwAAQKqhfqdZ9qgz0vmfUdmb2q2oy9G5eDi5tM2k1JRoLCpyw3W/68rzMOGMelGHN48Pxkwt0DVu693UfXlL4qiDtBn12nYe4/OiWev2Jof+m7oEc1ii63rqBZepAxgqxbnKMh9Y+i7Q25TAthRLn++whdELVVL+JMZUHVSswE6lA1TVgbBtgR7OPteBx76uA2/4bpjo8qqEB1AV6N42yqK+PykpdrIVt76xc48eh9ad9h7nouMV6FYiV5XR//DFH06uu+We4t9h7Lqa3a1yWx/Q6d1H2wJdPxx1v7pNFd52P1XFvu5T4tnlYbwCPfy69jVbtmbsBfqJZ181efy+Uw/uZ3u3jsxfrqNjxxHvOegzdr/5MFyMrRzG1i0pYwMAAEg11O80yxp1RdZpmaZZ0GGX49FkSO96XaLZzirArVw2Wno0pTy3qJCO1wzXv9WJ6TKv1G6KeibR+Xp8mQp/3a6eS6P/r7sfPdZwjHpDou1nDHrR86TvSXjbej7bPuawRBebhLubi/TiXGWZDyx6ARjv8q7RgUAFsL0AVHTVfRqusugC3WZmzzoDPXzx6zHqcXuxD4/QAbJuB2tboIcfSqEDj74WvuNZd0Duomrm/BApdrIVpvWl9Rie9IyXu49xiHjldhi9vvS6etlbvpSVyjd8s/6DMKx8FhXJ9u+4VE4p0HUs0YeG2n6iWeF//NFvZccc3WZKKR+W4HGqCnS77Kqv3FXsm2Mv0JWnPPd1B/ezo7dOz1+yo2PHEe/x9xm733wYLsZWDmPrlpSxAQAApBrqd5pljH0GX0g9U8q5nTcZU+erKRM9q6K+SUsMqzC3cjqmCZSpnVMcldrqheq6pjalspXjYReo8Yddl0l9XtUPxI9dRbXOzduW6eogvBUz9BzqMu86TdFzH78Roe+Xt+1uSHGusswHlr4K9Dh2QKlbzN9ekHHRrhe3XvgqvLWTto2up+vHO4kV9rMU6OG65zrAVT02vWNmmv6EpE2BHt6/WIGucep2dCDSu292YNN963bj2OxzPQbvcsX+jIgZ6M1OPPefTvrV/3nl4fk/a9n65yoqvcc4RKoK9DPedn22PrjWCrfSWKWyfrCFX4tjy6pYYazb97Z/3yfvyMpw+7dXoNt1Ndvd1kC30tsbc1xee7Pnw9QV6HF2Q4GuZYWy/WyF1kE/8dVXn/D8s69NnjFvxxHv8fcZu998GC7GVg5j65aUsQEAgN3reWdfs0/J/9loqN9pljE6hwvX5W5T0FrRq3NG9Vc639XXvG1TE89wDmmcTZ1UajROdUjxygdty3+7vvot+5qei1DXWeTqF8NZ9+rG2s4YV/SYjG6v7YfCeglL/nn+tcEqpjhXWeYDi945Mn0WN1bQ6h0W73LFtolfOGH5PIv4IGGFvZXOdTFWoOuFHr4Dpf/X1/XfePzaya3A1kEgvMxLaoGud7rsdu2AED4WjdHW2rLb9GbQK3b9ug8xsB2bAr3Zc8/97Pufe+41D5543jUXNhXpaxtb5+gx6AMbvce4yOjDPS/80G2Ta79+d1HmqlD+s4/dnhXnEq8DblEBLFXFtG5Ds76twI6LcS9egZ4S7Rt6HO/6m28Vy7vEl4f/DtNUoOtyzUL//HRf/+I37ql948BiBbq9kdBGyu33mWNOvTjbx7ROf/6SXXonnnv1+dn4p/thSpFux5H4sfcdu998GC7GVg5j65aUsQEAgN3reeddc3r2e8O511yWUqQP9TvNskbnzppBPGv5Pa+EfZXKZxW+VX3QPKIuSSWzeiProVJj4r5Mt6Wx602F8OttY0W/+rOwpG8bXVfP67y/x10K/bGlOFdZ9gOL/dlAl3dzUhK+c1T3Lo0us3fcwq+rrBOVvLq8bawcbiqk62LsgKN3sYx2aB0sNW5jf1ai0r5Nea6kFOi6bfszF33/bDxVbwbUFegqE0XbxJeFoUBPlxXoNs6GIn1tY+cCPYZl+ABRK8G/96MHJ+/88CM/WPTa1ustnB3u5e2XfnNy2dXfdy+zaJa5bqtqCZUwGk/Vuup1sZLeZqprf/G282IFetUbAYo9T3ff+3Dj41VUoHd5I2AZYh8kur65/an8Jbv0igLd0lCk23HkkOssIHa/+TBcjK0cxtYtKWMDAAC7V1GgWxqK9KF+pyFpUc/Td2ned9oW8U1p0wuQxaY4V1n2A4utK6SiWf8fF9BdosJIhasVt6KiucsOYAV6U8FbFRtD3azTppjw4KNx6d2ncCdU0WiFfbiekZ4T26YpNt6qAl1jsPJcVNLbn+h0KdA1NmlayoYCPd0hBbqlokhf29zer8dw7GmXHLo9IUsQfbCtXp9rG9s35y/ZpVcq0C0VRbodR9zr9Bi733wYLsZWDmPrlpSxAQCA3atUoFsqivShfqchhIwvxbnKsh9YVCyHRXcf4qK5TeZVoM/yzptJuQ0br9H9t/mTDBuvV6Dr/sPvlX3IQFOBbqW+lsnRNmHsMt1ufFkY224eaz3NK8VOtmTcAt0SFelrmztX6jFopq+7PSED5tlnXXFwP9vYuSd7ca+AygLdEhXpdhxxt+0xdr/5MFyMrRzG1i0pYwMAALtXZYFuiYr0oX6nIYSML8W5yiocWDQzXIWtithwJnnX6HZ0e8osM78VK6RV8HqXN8UK57r1vZti6gp0vUEQfrCA2PItohI6ZZmcugJd17eZ7SrDbUZ/U4E+T/r+evcxRIqdbMnUFuiWvEh/wjEv/Y4ew/Gv/IS/HSED5/C9L8r2s8fs3Xps/hJfao0FuiUv0u044m7TY+x+82G7GFs5jK1bUsYGAAB2r8YC3ZIX6UP9TkMIGV+Kc5VVO7CoJG67KL6WLlG80nfWWIGuMjqcEZ0aK7FnGZvxCnSV2PEn+6rcVmEffliB0VI2Wnal6jmuK9AVFfVaIiccS1OBrtuyWOluZb/G1lTs63urbXT9ujcRFh3tV0dv/aF72arkxLP/8ed7TjqfAp0sbZ5wzEtWfj+ry1A/o+1+83MWF2Mrh7F1i+5zzPsxIYQQQhabp53y7myijXcZIYS0SXEeNdTJUtdoiQ6TulyHlhIx8/4EWSuHZ6Xb8W4/JSYsj1Uqa93wsDhXGa0yPbyuoutp25jWMtdzp7HZbTcV6F6aCvQwKuC1naSU59pe49QyPF3WsO8zxU62ZJJmoE9z4nlX3/CU5/3vb+gx/MrLP+xuQ8jQ0etzbXP7wfzlvfSSZ6Cfd83tmmljxxHn8l5j95sP28XYymFs3ZIyNgAAsHu1mIF+4LnnXn2O/ZWquw0hhLRIca5i/+NttIwJC+vUmeha1kM089q7fJZoJrdu32ZAx1ExrWVNVPBq7PHlup6uP48lXHQbcWkuKqL1dXu+9P8q2OPbsSI9nJEuYZHdZ4GuN0TCseu+6p4XleeaMW+WrUQvdrIl01Sgqzh/znn/tK1t1zd2LtNjePpLP+BuO4b89ju+PHngwZ9OPvX5H7iXV0WvP+/rZHHRX0bo9bm2uXN79uJeAQkFelac55tTtjphbN2y6mMDAAC7V8Ia6Flx/qtvvPLR2n6o32kIIeNLca6yagcWFbmiotW73IsV6CkzoOcdzfg2WhrF22bWGBXg4RsMeo702MM3GjQGY8u1hLelqBhUmW1leTjTf94FusYW3pdcc+Nd2ZsdovLeG6PWrtfMc6PyXNstU6lZ7GRLpqpAD4tzs7558oV6DPoTOO86Y8gLXnvt5K57H568/r03FV876TWfndz87fvzV5evbeFO5h99uK1en/qw2/wlu/RqCvRDinNjxxFn+15j95sPw8XYymFs3ZIyNgAAsHtVFuhRcW6G+p2GEDK+FOcqq3ZgUXErKly9y71Yga61ub3L+4yVx23G2zbGllnRfaqUrpqNrdnn4cxtjU3X8baNi/J5FOgqv/dfcWexVItRcW4zzvXfUDhjXv9vM9U1nllm7/eZYidbMnGB7hXnZn1z+7V6DE/detshj21MqSvQL/5bf5koHUviAl0z2R96+NC/3qhSdbt10X167La0X3hu/Od7S7c1lhx72iXZPra2ub0/f8kuPadAd4tzY8eR6Dq9x+43H4aLsZXD2LolZWwAAGD3KhXoFcW5Gep3GkLI+FKcqyzLgcWK8aFVFclhtI3KXy13onK+LiqFRUWvd3kYrTeu29UHaHr3WxVjBXpq9JzbTG/RjG5vuzDzKNDjpVf09XBtehXiVpDbdvq3inf7cFHR0jjLvIxGsZMtGSvQ64pzs370VrYG81HPf4P7GMeQeRXoFu+64deqinA5cPeDla/p+D7j+1GBHl//z//u26Mu0Pe98KJsH1vb2Lkgf8kuvaBAry3OjR1Hwse9iNj95sNwMbZyGFu3pIwNAADsXkWB3lCcm6F+pyH9p2sHpOupU/IuI6QuxbnKshxYVq1A75OKee9+q2KaCvSqg4WWPlEZnVLcz6NAVzRWFYLx7ahIt/Jcbyroa7qeR8u7pK6DP0SKnWzJ6BeOpuLcrG9snaDH8OTjz3If4xgy7yVcmgp0/dsr4JvKbgr0cjZ//YJsH1vb2Donf8kuPf3yn1KcGzuOeI+/z9j95sNwMbZyGFu3pIwNAADsXiee+08npRTnZqjfacaSd37ktqyP0coGy1Y6a5KqJn+qZ2rzGXg2GVPXDZcpJqQpxbnKshxYVPqoTG0qRG0Nb81M9i73oh1f6opp7Xgp96/YUgkqnXWdumipEtF4vcvDaB1v6WMGui2JonF4a4rr8ae8kzevAt2LfZ/Cdc81LnteRDPm9VhsZr/WmI9vZ1lS7GQr7DF7tx67trn90OFPfdHk2Wdd4T7OVUzVcieiktorwcN4Bbila4Fed5sKBXo5T3rGyw/uZxtbJ+Qv2dEZ6md0yvGLsZXD2LolZWwAAACphvqdZiyxbkaWacnc+DxeRb+3XRz1SuqZRBM2h3xMem7VjSmp4yfDpjhXWbUDixXSKpO8y72kFOhtovJYVCZ7l4dJLY8VjU80Xu/yqpi6Aj08AIrGrp21zTt2Sh8Fuj4Y1pZq0ZsSdjCLy3Oxwtw+TFbjafsYFpViJ1tx+oBGPY5jTr3YfZyrnr6WcPHY7cXFdtP9KbpPT1ige8ZaoD/rzMsP7mMbO/fkL9VRsuOI9xz0GbvffBguxlYOY+uWlLEBAACkGup3mrHE+qM2E1f7jnof641UgqsT8rbzohnnJlw+eN7RhFxN9qzry9TDmXl1lKTfFOcqq3Zg6TLzmAL9YHS5njcrwUWFte4vdSmUeRXomiWrr+trRgWhjSMszzXr3P5f68TbbdjBU2+q2NeWKcVOtuLWNrdfocfxlOe+zn2cq54hlnCJZ4t7Y0iNbuunP/t5cV3tR/9yz0Ot9tFVzN6dd2T719rmzvvzl+oo2XHEew76jN1vPgwXYyuHsXVLytgAAABSDfU7zVhiHZp6GO9yRdTJqNNpG/VQbfu5sATXObC3TVW0bIv0XVhbR1U30dP6MWnzJgAZLsW5yiodWPQCtAK3zQ5DgV6OdlR7M0L05ywqp5tuYx4Fus0eNzqYhbenNbbswKPnRN937wCudw7NMpaFxU624tb3bh2px3H43hdNTjz7KvexrnJmKa+9pBTov/2OL0/u/cl/TE77g4P7W1yot0l8Xd3XP3zxh51vb1WidfmzfWxj59T8pTpKdhzxnoM+Y/ebD8PF2MphbN2SMjYAAIBUQ/1OM5akdGizatPPaaKlfVaeuquwjI+jLim8bVv7XFIKf7sf9VjhGFJiXaGEkz/DhAV6mw6va9SnaVzL2JmtSopzlVU6sNg7Tnq3qurdHC8U6NXRcinxMil160HNo0BXdBDTgSn+8Ab9OYutTRVeZmvfx8+5DkoSLv2yLCl2shFY39i+Vo/lGb/5l+5jXeVYgf5nH79jcuud9xeldtekFOi6zx/f/+/Fv+uWhKlauqWNcIb6GKL1+PV6XNvcflDr9Ocv01Gy44j3PPQZu998GC7GVg5j65aUsQEAAKQa6neasSSlQ1MnlLqSQRhNmNR1Uz+cVN1f3Fk1sXGHy6W01aVAV2zZafF6s7BAb9Nrdokmndrse/G2Ic0pzlVW5cCiHdOK1bYfskmB3hw9Ji2Volnp3uWWeRXoSniw1SxaXS4q1uO/MNC/Tfh1HXBsTHp9xNcbMsVONgLrGzvn67Ec9fw3uI91laPZ4CqzVTJfdvX3s38/9PDBY02KuPi2stwTluoqxrU++Swz4LWWupZredfffGty+4EHsv9/7Z98zd12TNF6/Af3r+1P5S/R0bLjiPc89Bm733wYLsZWDmPrlpSxAQAApBrqd5qxZN4dWtfoL6ptdQJRt6QVDawbtPXG42gb/de2U2dkZbW+buJuUYWz3UaXNwcU3Y+NWeV1XJKHS9GEX59ndJ9hkW+8bUlzinOVVTiwaKdRuSvaAdq+kOe989sSJLMU6HpBa6e0nUm3aUVwm/XdFaNZ2razd40daKqimd6i//fG4qXqOdA7jnpH0B63aBvvnUj7Hqpcjy/TGwfhbeggmvpuZp8pdrIReNzmyUfpsRz+1BdNnnnGR93Hu2o5423XF8sYNc3QblNyp8xAV/Rmj+5XY2i73Mp50/1Phfl1t9xzyPXe+le3Zl/X7X7ycz8YZZmuZYSeeOzp2b6l9fnzl+ho2XHEey76jN1vPgwXYyuHsXVLytgAAABSDfU7zViyDAW6er+wPA9XKLCOSaomUYarG8T9la1kIH1MwgwngMaf2VfXbc0j4axz3Uf4WL3tSXOKc5VlP7BoWY6wHG1bLivz3vnDndW7PExVeayEf0oRUokdb1uXIcxSoGvmrXbkkJ6LugOX/cmOtvMuV4lu5b4ZekmXYicbifWNnffo8fzSc17jPt5Vii2hoqL5Lz/9nVI5rsuv+spd2Yx0+/e8C/Rwpnr49TDa5sIP3ZZFs8w1ps9P94UPXfnd2sJdbw787TXfL2bS63Fq32mz3y5r9r3wItu3bshfmqNmxxHvuegzdr/5MFyMrRzG1i0pYwMAAEg11O80Y8nQBXo8SdJbhcImw6lbCidQqgfS9irgbdJmeD1FE1nt9nX9WVZzqIrKfxX48bLFVmjr8vDrsyaeda7eTc+BOgDjXY80pzhXWdYDi17o+ubbO0aindjbtim282sH8y5vmzZ/cmHlsVf8hrcjKoDjnSslRgc3PdY+Y8W3Hpc3Fi/2HOgApX/rHTH7vnqPWd/7sOjTGwq2fd0BXIWiinZt28e7iG1T7GQjcdieFx+uNaf1mMYwC10ls14zXjluBbsV2/Mq0G/45o+zddbtdmx987oC3Ur2KnbdqrXStayLind9sGh8+6sWrX3+hP/ykp/rNbi2ubWdvzRHzY4j3vPRZ+x+82G4GFs5jK1bUsYGAACQaqjfaVYtmqCqsjnufTT5UVTyhl/Xtrqs78mKYRGsjsfbRufyNonSJmuGEyvVC2m8VRPP1EuZeXWFYdRp6T7ir6vT6uM+rSjX4w8n5VKgz57iXGXZDix6d8ibma2d1ds+JbqueLPAu0Q7pV6EYclbFfvQAiuPw+gdIo1NBXPKbXnRbZiut9EmxnsXryr2HGhHtq9ph9ZB0TuYhQeykA6AKUuzpGyziBQ72Yisb558oR7Tk48/y33Mq5iqAj38mhXqoaplX6z01jvLl05f49/63iN/dqbrXPu1u7PXvdYv17+/+I17Km/LUlfKhwV6vB677kPrrIdfW+Vs/Nqbsn1qbXPnyvwlOXp2HBkq+TBc3vaLTD4Ml7f9IpMPw+Vtv8jkw3B52y8y+TAAAABmYr9beOcU5JFYmdvWIron9W4qwG3ZYy8ah/VK8ax19U9NEyt1XRX0VSV7H7HVFdQXeJfHsQmmXhkfRtvo+xk/Fn3dhF8n6SnOVZbtwBK+YyQpL/qm2EHBK7H7jpX3Kn+9y2eNni/TZlZ4l2hH1JsQSpv7sudAvMu9hAc+0TufTQeMZUuxk42IZqGvb+z8QI/r6S/9gPu4Vy1egW5rllk5nTIDXR8++r0fPZhdz+jNQP1gfP0lNx1Sdse3r/K7rkSnQL9mcsLvfDpbg1+vvcP2bO3LX5KjZ8eRoZIPw+Vtv8jkw3B52y8y+TBc3vaLTD4Ml7f9IpMPAwAAYCb2u4V3XkEeic5L1dco4WfqWR+jste+ptnqtq16KO/2hopK5rBDCsff9cNAU6K+0jqy1NiqDhqj/h2u815H23pjaAoF+uwpzlWW8cCiPwfRC1E7Zt27TanRjq4Xmwom7/I+owOLHXC8y2eNSm07iA295ndV9NhtjN7lXuxPibS8y7LMKG+bYicbmbWNrXP0uPRBjio1vce+SvHKcR0rvvqteycPPPjTbB30lAJdhfbXbr8vW6Yl/vDOsOx++6XfzH54hWW3Ltd9ipZaid813u0Fuj44VH/1kO1TGzuX5S9FAAAAACixc3Hv3ILUJ5yk6S2hq8vn1T2p3J51oqQ6I1vyV+W0VjtQj2hrjeuyLp+lmJJFSp2xHocCffbY8YQDCyE9pdjJRuaII1726PWN7Wv12FRqqtz0Hv+qJC7H9S68fsie9gfXZeuk337ggeyHjWaI64eWfainpekDPRUru22G+nW33ONup/JctG55+Kbbbi/QbemW9c3tA/oriPylCAAAAAAldi7unVuQ+tgSvOIV6JoYOU+aiR3fR0pUvttyKKKZ3PHMeJ3b24zvm+6475C1wecRm1WunsAmjSoq7G0ibRh7btU3aCz6WtOEUdP1TQDdh/EuJ82x4wkHFkJ6SrGTjVC2lMvm9gE9vj0nne8+/mWPyvGLL789+/AOWz5Fs8MfevhnhxTVtq0+iDNeokVSCuqw7P79D9QvSfXmD34j+yEXfs2u7wkLdM+qF+hPO+Xd2X6kD7BdO3rnl/OXIAAAAAC47FzcO78g9VEhHNIM7/DysECvWsLElmW2ZUriqMw2bQt0leQqrK0Yl7q10lW065zfqGjXcjXetn3Hnjs9B97lcTRRz+jNAG+bplCgzx47nnBgIaSnFDvZSKnMXNvcfkiPcd8LL3Kfg2WOZp7rg0HvvvfhbJkWldT60E/9v7f9LLH7iov51FTNQNeSMWGB7s1Ar5rtvgr5lZd/WOue/1yvselr7RX5Sw8AAAAAKtm5uHeOQaqjstmjc802yyvb5xCqMPYu7xKV3uGMc1ERnbqcjIrkuLjXh4gucilkfUaaxG9KVCVcTqfr0sYU6LPHjiccWAjpKcVONmLrGzun2uN8xm/+pfs8ENIlx7/yE5MnHPOSg/vRxs578pccAAAAANSyc1TvPINUR8uEhFT42vrimrndtHSpZdYCXWW9il9dX6V5ONvcpJbQcTSTW+V5SDPmNeY/3H9rdr+pj7NNVICbeKmZqoTld9cPQ6VAnz12POHAQkhPKXaykVvfPPlCPU7NFD7m1Ivd54KQNtHM80fK8+1rte5+/nIDAAAAgFp2Lu6daxA/Kq1t6RWV5aJSWWt1W4GtQj2l/J2lQNftW2kf0wxyzUTXzPNZ6TbiGe0xlc/eGLvElm9ps2SNHqvxLk8JBfrsseMJBxZCekqxk+0CmiFsj1cf+Og9H4SkRG/C2LItKs8fs3frsfnLDAAAAAAa2bmpd75B/FhZq4LXyl4V4bpMy5xYqa3Lm2ZozzoDPfwgU92vbi9cwmQeBbqNTYW9Zt7bmwZG5brd3zxiy7dovXbvci/2POiNDe/ylFCgzx47nnBgIaSnFDvZLrG2sXWOPeYnH3/W5NlnXeE+L4RURW++2GtIb8ow8xwAAABAW3ZO4Z1zED9WIGtplLhAV7T0Sfw1zVpXyRsX6lUFeptlV7Q+ubbvYzmVqqhM1+PRh46mLrOSEr0BYVRo63lL+SBT+z6ofPcuTwkF+uyx4wkHFkJ6SrGT7SLrG1snrG/s3KPH/aRnvHzyzDM+6j43hIQ54Xc+nb3poteNPpiWDwx9hB1Hhko+DJe3/SKTD8Plbb/I5MNwedsvMvkwXN72i0w+DAAAgJnY7xbeuQcpx2Y6a7a3CmuvQLftwg8TVcEtWuJFM6vtMq9At1njbWZgd4nWCn/VRV9xL1NUKOvNAO+yvmKPXbPa9RzZ0jGa+e5tb/nYZw9k2+n63uUpoUCfPcW5CgcWQvpJsZPtMo/bPPmotY3tm+3xH/X8N2QFqfcckd0d/ZXCU7fepiVb8v1l+8Da0Tu/nL+UMGX70VDJh+Hytl9k8mG4vO0XmXwYLm/7RSYfhsvbfpHJhwEAADAT+93COwchh0aFrq19buV2VYEex2atq3jXB3Da170CXTPKzawFdlVBbmWxHk9Y9IfR7HJRKa2Z4d4280y4jrnuTzPbww8xDZ+3OJ+5/kfZNvqvd3lKKNBnT3GuwoGFkH5S7GS7kNatXtvceb89BypIN3/9ApZ1IUX2vfCiRz4oVNnYueywPS8+PH8JIWfPj/cc9hm733wYLsZWDmPrlpSxAQAApBrqd5pVjM1yVgmu2dv6WkqBbku6SDyT2ivQFZt5rRnr4ZrmqdHseJvN7ZXwKs3tA0+9y8OlVGTe65zH0XjtzQkV9/Z1PXYbp1S9oWCPVd8j7/KUUKDPnuJchQMLIf2k2Ml2Mc1GVzFqz8Xj952aFafMSN+dOfHsqybHnnZJtryPvSb0QaFa+id/ySBiz5P3fPYZu998GC7GVg5j65aUsQEAAKQa6neaVUs4OzpcWiWlQLfZ595s76oCXYWyzb7Wut5Vs8TrYjPIq2aZ1y17YteVvpeSUXQfojcn4jXVNYteX7fLvdnw9sGj8fPYJhTos6c4V+HAQkg/KXYyPErLcqxt7lxpz4ly5HFnTvbuvGPyrDMvd58/Mo4c/8pPTJ52yrsnv/Sc1xTfe2X6erh9bXNrO3+JoII9X95z22fsfvNhuBhbOYytW1LGBgAAkGqo32lWKSpswwLXZp8rTQW6yl/jLUFSVaAr4f12mVkdziL3PpQ0vDyc5a7HZ+reGJhXwnFUlfXhGxh6YyF+Q8Bmr9ct89IUCvTZU5yrcGAhpJ8UOxkKKkw1I31tc/tBe36UJx57+mTPSedns9OPO31/Fs1W9p5Xsryx790xp16cLdmjN0nC73OWje1r+ZDQdPa8ec93n7H7zYfhYmzlMLZuSRkbAABAqqF+p1m1aEa4Sty4iK4r0FVE2yxyzUKPL1fqCnTFPnxUVDR729TFZpLHxb/FZseHxbXNBlcprccdbj/vhOuc67/eGC02Lq8kN7OsGU+BPnuKcxUOLIT0k2InQ8kRR7zs0XmZ/h59cKQ9V14OWSebLF0OWY7Fid4smWb/+tFbp7PGeXv2PHrHmD5j95sPw8XYymFs3ZIyNgAAgFRD/U4zllQV6Johbetyy+v+9OuHXG5pKtAVK7mrSvi6qJC2Weze7G6V0VqX3YrycNZ71ZjnlbA8T13r3ftQ1HDGfNWHpqaEAn32FOcqHFgI6SfFToZGh+3Z2re+sXN+ls3tT2m5l7WN7ZvtOSSrkO0D2fct+97tXKDvJUu0zM6eX+8Y02fsfvNhuBhbOYytW1LGBgAAkGqo32nGkqoC3WZLy2eu/9Ehl4VJKdDDDyF950duc7epi41FBXzTWuo33XFftm3dmOeRsDxXYT9LWa/i3cTrp7cJBfrsKc5VOLAQ0k+KnQwAOhrqZ3TK8YuxlcPYuiVlbAAAAKmG+p1mLPEKdM3qNloGpW5ZkpQCXbFiW6Vz2w8U1f17a6DHUTkvTWOeNWF5Ll3eFAjTtvjW9l7C5XK8y7ssobPbUpyrcGAhpJ8UOxkAdDTUz+iU4xdjK4exdUvK2AAAAFIN9TvNWBIX6Cq3NXvbaN30+DphUgt0lbcqtmdZoqQuKsy1jIo0jXmWaDa9feCneMvKtI0V3yrlvcvjdKUlebzbI4+kOFfhwEJIPyl2MgDoaKif0SnHL8ZWDmPrlpSxAQAApBrqd5qxxJuBrmhN8ZQPtEwt0JU+P9DTSv++lm7RMitfuPlfs/sw8XPWNXa7+sBU7/I4KsK7ZB5l/9hTnKtwYCGknxQ7GQB0NNTP6JTjF2Mrh7F1S8rYAAAAUg31O81YYgV61+LZyl99kKd3eWqsiF+klNJfM/L3X3Fn8cGkJmVJmTCaIa910m0ZFb2ZoGVVwtn+bW+TzD/FuQoHFkL6SbGTAUBHQ/2MTjl+MbZyGFu3pIwNAAAg1VC/04wlVqBrhrJ3eRiVwPogz3BWs1EZ7F0nNctYoKvkDpdrES0TkzIzP46K+Pi2Qlq+pc8Z+iQtxbkKBxZC+kmxkwFAR0P9jE45fjG2chhbt6SMDQAAINVQv9OMJR/77IGswE0p0BXNxo7pA0LbfjBoHC2RMmsJ3ya6L30YqHdZmPADVVVya5zedinxnjuZ9XbJ/FKcq3BgIaSfFDsZAHQ01M/olOMXYyuHsXVLytgAAABSDfU7zVhiM79TP8BSxbPNPtcM7nd+5DZ3uzFFJboe76wzxLVEy3d++G/ZbWm9cz1/WtbF25YMk+JchQMLIf2k2MkAoKOhfkanHL8YWzmMrVtSxgYAAJBqqN9pCCHjS3GuwoGFkH5S7GQA0NFQP6NTjl+MrRzG1i0pYwMAAEg11O80hJDxpThX4cBCSD8pdjIA6Gion9Epxy/GVg5j65aUsQEAAKQa6ncaQsj4UpyrcGAhpJ8UOxkAdDTUz+iU4xdjK4exdUvK2AAAAFIN9TH7j40AAALuSURBVDsNIWR8Kc5VOLAQ0k+KnQwAOhrqZ3TK8YuxlcPYuiVlbAAAAKmG+p2GEDK+FOcqHFgI6SfFTgYAHQ31Mzrl+MXYymFs3ZIyNgAAgFT2uwUhhMwrg50sETL2FDsZAHQ01M/olOMXYyuHsXVLytgAAABS2e8WhBAyrwx2skTI2FPsZADQ0VA/o1OOX4ytHMbWLSljAwAAAIDBDHWyRMjYQyEAYFZD/YxOOX4xtnIYW7ekjA0AAAAABjPUyRIhYw+FAIBZDfUzOuX4xdjKYWzdkjI2AAAAABjMUCdLhIw9FAIAZjXUz+iU4xdjK4exdUvK2AAAAABgMEOdLBEy9lAIAJjVUD+jU45fjK0cxtYtKWMDAAAAgMEMdbJEyNhDIQBgVkP9jE45fjG2chhbt6SMDQAAAAAGM9TJEiFjD4UAgFkN9TM65fjF2MphbN2SMjYAAAAAGMxQJ0uEjD0UAgBmNdTP6JTjF2Mrh7F1S8rYAAAAAGAwQ50sETL2UAgAmNVQP6NTjl+MrRzG1i0pYwMAAACAwQx1skTI2EMhAGBWQ/2MTjl+MbZyGFu3pIwNAAAAAAYz1MkSIWMPhQCAWdlxZKjkw3B52y8y+TBc3vaLTD4Ml7f9IpMPw+Vtv8jkwwAAAACA5WInLV4BSAjpHgoBALOy48hQyYfh8rZfZPJhuLztF5l8GC5v+0UmH4bL236RyYcBAAAAAMvFTlq8ApAQ0j0UAgAAAAAAAMCKo0AnpJ9QoAMAAAAAAAArjgKdkH5CgQ4AAAAAAACsOAp0QvoJBToAAAAAAACw4ijQCeknFOgAAAAAAADAiqNAJ6SfUKADAAAAAAAAK44CnZB+QoEOAAAAAAAArDgKdEL6CQU6AAAAAAAAsOIo0AnpJxToAAAAAAAAwIqjQCekn1CgAwAAAAAAACuOAp2QfkKBDgAAAAAAAKw4K/kIIf0k39UAAAAAAAAArBqv8COEzC/5rgYAAAAAAABgpTzqUf8fu1gqdcwzQCsAAAAASUVORK5CYII=;" vertex="1" parent="1">
          <mxGeometry x="40" y="10" width="1488" height="809" as="geometry" />
        </mxCell>
      </root>
    </mxGraphModel>
  </diagram>
</mxfile>
